<?xml version="1.0" encoding="UTF-8" standalone="no"?>
<svg
   viewBox="0 0 286.3 263.37"
   version="1.1"
   id="svg876"
   xmlns="http://www.w3.org/2000/svg"
   xmlns:svg="http://www.w3.org/2000/svg">
  <defs
     id="defs870">
    <style
       id="style868">.cls-1{fill:#f1f2f6;}</style>
  </defs>
  <g
     id="Layer_2"
     data-name="Layer 2"
     style="fill:#121314;fill-opacity:1">
    <g
       id="Layer_3"
       data-name="Layer 3"
       style="fill:#121314;fill-opacity:1">
      <path
         class="cls-1"
         d="M269.69,143.1V80a32.73,32.73,0,0,0,5.14-5.07v73.68A10.65,10.65,0,0,0,269.69,143.1ZM12.92,169.36a10.68,10.68,0,0,1,3.69.66v-64.2a20.58,20.58,0,0,1-5.14-1.45v65.1l.44-.06A9.69,9.69,0,0,1,12.92,169.36Zm256.77,31.17v57.69H16.61v-6.6a25.83,25.83,0,0,1-3.36.25c-.6,0-1.2,0-1.78-.08v11.58H274.83V198.22A30.49,30.49,0,0,1,269.69,200.53ZM15.43,42.18,16.61,42V5.14H269.69V7.37a9.35,9.35,0,0,1,3.08,2.41,9.61,9.61,0,0,1,2.06,4.6V0H11.47V43.21A28.56,28.56,0,0,1,15.43,42.18ZM77,239.9a4,4,0,0,1-1.21,2.8c-3.93,4.58-8.67,7.58-13.34,8.43a16.21,16.21,0,0,1-1.67.21c-4.88.34-9.39-1.69-13.56-4-3.75-2.08-7.15-4.37-11.87-7.54l-3.57-2.4c-1.77-1.21-2.65-1.09-4.11.52a20,20,0,0,1-10.94,6c-9.83,1.77-15.46-4-16.54-10.1A14.84,14.84,0,0,1,2.64,223a13.48,13.48,0,0,1,8.8-5.39,18.08,18.08,0,0,1,9.6,1,2.45,2.45,0,0,0,2,.08,2.4,2.4,0,0,0,.85-1.63l.15-.54c.45-1.94,0-2.64-2-3.11-8.88-2.31-14.63-8.44-16.19-17.27a21.73,21.73,0,0,1,4.26-17.49,3.74,3.74,0,0,1,2.52-1.6,3.66,3.66,0,0,1,2.94,1.3l2,2.15c2.24,2.34,2.34,3.29.61,5.95a10.46,10.46,0,0,0-1.39,7.65,10.58,10.58,0,0,0,7.22,8.39,2.74,2.74,0,0,0,2.28-.05,2.77,2.77,0,0,0,1.13-1.92c3.47-16.47,8.44-34.27,23.56-37,6.82-1.24,15,2.28,16.89,12.95,1.15,6.55-.45,16.63-8.4,25.31A38.68,38.68,0,0,1,39.42,213c-2,.45-2.68,1.15-3,3.25-.44,2.32-1,4.72-1.58,7.11-.53,2-.15,3,1.54,4.16,3.33,2.17,11.55,7.49,15.79,9.92,4,2.15,6.14,2.78,8.23,2.4,2.26-.41,4.46-1.85,6.7-4.39,2-2.16,3.55-2.29,5.87-.47l2.42,2.08A3.94,3.94,0,0,1,77,239.9ZM39.86,201c.3.28.87.28,1.57,0a23.39,23.39,0,0,0,9.36-7c4.17-5.29,5-11.24,4.49-13.94-.4-2.24-1.63-3.38-3.5-3.25a5,5,0,0,0-.52.07c-4.33.79-8.23,8.35-11.58,22.49C39.48,200.12,39.55,200.68,39.86,201ZM18.34,229.78a2.27,2.27,0,0,0-1.41-1.63,8.18,8.18,0,0,0-3.7-.86,3,3,0,0,0-.43.05,3.16,3.16,0,0,0-2.08,1.32,3.67,3.67,0,0,0-.61,2.8,3.2,3.2,0,0,0,4,2.46,7.11,7.11,0,0,0,3.64-2.22A2.35,2.35,0,0,0,18.34,229.78Zm62.91-48.91c.23,0,.47-.05.7-.09a7,7,0,0,0,4.42-2.89,7.67,7.67,0,0,0,1.33-5.72,7.1,7.1,0,0,0-8.24-5.77A7,7,0,0,0,75,169.25a7.38,7.38,0,0,0,6.27,11.62Zm113.09-20.59c.24,0,.47-.05.7-.09a7,7,0,0,0,4.42-2.89,7.62,7.62,0,0,0,1.32-5.72,7.08,7.08,0,0,0-8.23-5.77,7,7,0,0,0-4.48,2.86,7.23,7.23,0,0,0-1.23,5.5A7.33,7.33,0,0,0,194.34,160.28Zm91.81,9.32c-3,9.37-8.68,22.11-22.58,24.65a21.63,21.63,0,0,1-2.58.32,16.77,16.77,0,0,1-8.22-1.33,3,3,0,0,1-1.94-2.29A3,3,0,0,1,252,188.4c2.84-2.62,4.17-2.65,5.34-2.67a6.32,6.32,0,0,0,1-.08,2.45,2.45,0,0,0,1.66-1c1-1.38,1.06-4.29.25-8.89-.31-1.77-.74-3.83-1.2-6-.23-1.1-.46-2.21-.68-3.29a1.6,1.6,0,0,0-.32-.86,2.17,2.17,0,0,0-.33.75l-.36,1.22c-.85,2.91-1.65,5.66-2.39,7.73h0l0,0c-7,19.63-14.35,23.1-19.3,24-4.67.85-7.46-.92-9-2.57-.62-.74-1-1.06-1.38-1s-.7.36-1.25,1.08c-1.6,2-4.95,5.54-9.41,6.35a9,9,0,0,1-1.12.14c-4.91.34-8-3.24-9.27-7.52-4,6.78-8.52,10.82-13.51,11.73a13.11,13.11,0,0,1-1.35.17,8,8,0,0,1-6.54-2.27,9.85,9.85,0,0,1-2.26-4c-3.26,5.2-7.44,9.35-12.68,10.31-3.81.68-6.93-.41-8.84-3.11-.51-.68-.91-1-1.23-1h0c-.3,0-.66.33-1.14,1-2.69,3.9-6,6.21-9.7,6.9-.47.08-.93.14-1.37.17a8,8,0,0,1-6.56-2.28,9.63,9.63,0,0,1-2.22-4,25.19,25.19,0,0,1-5,5.77c-1.89,1.49-2,1.68-1.24,4a15.81,15.81,0,0,1,.54,5.28,29.54,29.54,0,0,1-3,13c-2.32,4.36-5.73,7-10.13,7.77a14.63,14.63,0,0,1-1.55.2,8.7,8.7,0,0,1-7.06-2.37c-2.61-2.65-3.43-7.31-2.3-13.13l1.61-8.23c.17-.71.07-1-.07-1.13s-.44,0-.94.39a14.76,14.76,0,0,1-6.1,2.86c-5.57,1-9.08-2.79-10.39-7.39-4,6.79-8.53,10.83-13.51,11.74a13.29,13.29,0,0,1-1.36.17A8,8,0,0,1,69.68,226c-2.11-2.15-4.2-6.84-2.2-17l4-19.77c.57-2.83,1.89-4.13,4.69-4.65l4.79-.87a3,3,0,0,1,2.79.55,3.14,3.14,0,0,1,.47,2.93l-4.37,22c-1.38,6.84-.94,9-.34,9.64a1,1,0,0,0,.92.22c3-.56,7.14-7.16,10.55-16.86.87-6.17,2.8-12.94,6.24-17.77,2.53-3.56,5.61-5.69,9.13-6.33a9.35,9.35,0,0,1,8.62,2.44c1.79,1.69,2.38,1.75,4.51.54l7.09-4.29c1.27-.73,2-.57,2.39-.3s.82.93.52,2.43l-6.25,30.9a1.67,1.67,0,0,0,.39,1.63,1.64,1.64,0,0,0,1.63.17c5.74-2.07,10-11.62,12.15-17.66l3.42-17.21c.55-2.89,1.86-4.22,4.68-4.73l4.79-.87a3,3,0,0,1,2.79.55,3.14,3.14,0,0,1,.46,2.93l-4.37,21.95c-1,4.82-1.1,7.68-.31,8.48a1,1,0,0,0,1,.22c2.57-.47,4.67-4.74,7-11a44.25,44.25,0,0,0,1.61-5.43l3.17-15.9c.55-2.89,1.86-4.21,4.67-4.72l4.8-.88a3,3,0,0,1,2.79.55,3.14,3.14,0,0,1,.46,2.93L170,192.73c-1.08,5.37-1.16,8.57-.21,9.53a1.11,1.11,0,0,0,1.1.27c2.9-.53,6.61-6.61,10.2-16.69l3.46-17.19c.57-2.83,1.88-4.13,4.69-4.64l4.79-.88a3,3,0,0,1,2.78.55,3.14,3.14,0,0,1,.48,2.93l-4.38,21.95c-1.37,6.84-.93,9-.32,9.64a1,1,0,0,0,.91.22c3-.56,7.13-7.15,10.54-16.84.87-6.17,2.8-13,6.25-17.79,2.53-3.56,5.6-5.69,9.13-6.33a9.36,9.36,0,0,1,8.62,2.45c.75.7,1.13.72,1.3.65s.47-.57.59-1.3l3.16-15.51c.58-2.82,1.89-4.12,4.69-4.63l4.79-.87a2.49,2.49,0,0,1,3.24,3.39L238,180.35c-1.35,6.76-.88,9-.24,9.6a.93.93,0,0,0,.91.24c3-.55,7.24-7.39,10.75-17.43h0s0,0,0,0c1.82-5.21,4.33-13.41,6.12-19.95.76-2.86,2.17-3.86,5-3.63l3.42.27c2.84.17,4,1.39,4.22,4.35a112.58,112.58,0,0,0,3.43,19.57c.49,2,.92,3.76,1.14,5l.26,1.49c.09.72.31,1,.49,1.05s.5-.13.91-.7c2.24-3.15,4-6.95,6.26-13.14a2.32,2.32,0,0,1,3-1.46A3.25,3.25,0,0,1,286.15,169.6Zm-172.76,20A2.71,2.71,0,0,0,111,188.4l-.33,0a5.74,5.74,0,0,0-3.43,2.61c-3.44,4.83-5.16,14.86-4.45,18.84.31,1.8,1.09,2.41,2.65,2.13,2.21-.4,3.9-2.41,4.92-4a20.56,20.56,0,0,0,1.72-4.19l2.13-10.59A6,6,0,0,0,113.39,189.63Zm10.19,30.52a1.58,1.58,0,0,0-1.3-.61.81.81,0,0,0-.31.06,1.39,1.39,0,0,0-.9,1.16l-2.4,11.81c-.32,1.58-.59,3.26-.15,3.72.09.09.28.2.85.1,3.24-.59,4.17-5.64,5-11.68h0C124.68,222.69,124.41,221.12,123.58,220.15ZM226.48,169a2.72,2.72,0,0,0-2.42-1.23l-.33,0a5.74,5.74,0,0,0-3.43,2.61c-3.45,4.83-5.16,14.86-4.46,18.84.32,1.8,1.1,2.41,2.66,2.13,2.21-.4,3.89-2.41,4.92-4a20,20,0,0,0,1.71-4.19l2.13-10.58A5.91,5.91,0,0,0,226.48,169ZM109.44,66.4c-2.42,7.12-7.7,15.38-18.24,17.3-6.72,1.22-10.93-1-12.7-5.44-2.61,5.09-6,8.84-10.76,9.71C61.9,89,59.1,84.47,61,74.43c.78-3.87,1.23-5.9,1.09-6.71s-.78-1-1.61-.87a7.57,7.57,0,0,0-3.84,3,7.77,7.77,0,0,0-1.53,3.29L52.24,87.45A3.51,3.51,0,0,1,49,90.65l-3.92.71c-1.72.31-2.46-.5-2.11-2.23l6.42-32c-1.28.2-3.18.46-5,.64-1.59.12-2.24.73-2.6,2.36L38,79.29c-3,14.79-10.2,17.95-15,18.82-9.19,1.68-14.42-3.88-15.51-10-1-6,1.78-12.24,8.73-14.06,1.7-.48,2.8.27,3.11,2l.37,2.1c.41,2.32.05,3-2.05,3.94a3.82,3.82,0,0,0-2.23,4.47,4.55,4.55,0,0,0,5.51,3.73c4.8-.88,7.09-5.91,8.76-14.18L32.94,60c.28-1.44-.28-2.18-1.69-2.25-5.43-.24-10.53-.43-13.56.13-3.18.58-4.55,2-4.21,3.94A2.85,2.85,0,0,0,17,63.91a4.34,4.34,0,0,0,1.84-.83c1.24-.95,1.79-.89,2.85.25l1.54,1.73a2.37,2.37,0,0,1-.2,3.71,11.45,11.45,0,0,1-5.42,2.6c-5,.9-10.49-1.43-11.69-8.22C5,57.48,7.55,51.39,16.8,49.71c8.77-1.6,22.75,1,31.58-.63a15.36,15.36,0,0,0,3.89-1.16c2.89-1.3,2.83-1.35,5.89-.23h.05a2.06,2.06,0,0,1,1.23,2.44,2.8,2.8,0,0,1,0,1.34L57.55,61c-.18,1.09.3,1.4,1.09.64A14.87,14.87,0,0,1,65.54,58c3.6-.66,5.68,1,6.18,3.88.26,1.46.08,3.22-.52,6.22l-1.26,6.3c-1.33,6.53-.36,7.13.53,7,1.89-.34,4.66-4,7.18-11.24C78.34,63.27,82.1,55,91.34,53.33,97.5,52.21,104,54.93,102,63.76c-1.11,4.7-4.29,9-13.85,9.76a1.41,1.41,0,0,0-1.06,2.25c.74,1.14,2.33,2.19,5.82,1.55,5.44-1,10.57-5.2,13-12.67C106.6,62.52,110.15,64.33,109.44,66.4ZM89.23,68c3.07-.62,3.92-2.55,4.34-4.74.19-1,.41-2.58-1.37-2.26-2.24.41-3.69,3.18-4.47,5.21C87.29,67.37,88,68.25,89.23,68ZM74.84,165.06a19.11,19.11,0,0,1-14.12-2.66c-2.08-1.23-3.08-1-4.72.62a21.56,21.56,0,0,1-11.62,6.06c-11.15,2-15.46-5.15-16.34-10.14-.95-5.38,1.21-13.33,10.63-15.05a19.37,19.37,0,0,1,10.47,1.24c2,.68,2.92.18,3.44-1.92l3.71-19.82c.93-4.84,4-10.79,9.67-13.35a3.5,3.5,0,0,1,4.91,1.76c1.5,3,1.49,3.83-.3,6.73a14.1,14.1,0,0,0-2.1,5.37L65,143a53.41,53.41,0,0,1-1.55,6.39c-.53,2,.06,3.29,1.88,3.93a12.18,12.18,0,0,0,6.82.77c10.86-2,15.09-19.65,12.77-32.82-1.79-10.13-7.52-17.38-19-15.3-12.45,2.27-16.63,12.6-15.38,19.7a15,15,0,0,0,1.16,3.65c1.23,2.75,1.06,3.91-.85,6.11l-2.34,2.76C47,140,45.21,139.72,44,137.62a28.85,28.85,0,0,1-3.65-9.79C38,114.57,45,98.74,64.81,95.12c19-3.45,30,7.42,32.89,24C100.75,136.45,95.48,161.3,74.84,165.06Zm-29.72-12a8,8,0,0,0-4.42-.65c-2.66.49-3.69,2.2-3.38,4,.36,2,2.23,2.5,4.31,2.11a8.53,8.53,0,0,0,4-1.93C47.17,155.46,47,153.81,45.12,153.1Zm215.75-44.65c-3.94,11.37-9.44,21-18.65,22.63-7.91,1.44-12.13-4.39-9.37-18.61l.3-1.27c.75-3.75,1.39-6.85,1.19-8a1.66,1.66,0,0,0-2.15-1.21c-1.29.23-3.35,1.6-5.35,4.12a11.83,11.83,0,0,0-2,4.5l-4,19.74c-.56,2.71-1.75,3.92-4.41,4.41l-5.4,1c-2.2.4-3.18-.58-2.94-2.62a17.29,17.29,0,0,1-9.85,5.95c-8,1.45-12.14-4.46-9.37-18.61l.22-1.26c.74-3.82,1.4-6.85,1.2-8a1.64,1.64,0,0,0-2.08-1.23c-1.36.25-3.41,1.7-5.37,4a11.86,11.86,0,0,0-2.16,4.61l-3.87,19.71c-.56,2.71-1.76,3.92-4.41,4.41l-5.54,1c-2.37.43-3.39-.68-2.92-3.07l3.58-17.59c.71-3.58,1.39-6.84,1.18-8-.16-.89-1.05-1.34-2.13-1.15-1.3.24-3.36,1.61-5.36,4.12a11.94,11.94,0,0,0-2,4.51l-4,19.74c-.56,2.71-1.76,3.92-4.43,4.41l-5.39,1c-2.2.4-3.18-.59-2.94-2.64a17.3,17.3,0,0,1-9.84,6c-4.39.79-7.12-.78-8.57-2.28s-2-1.47-3.31.14c-1.78,2.17-4.88,5.19-8.83,5.91-5.69,1-9.38-3.05-10.36-8.62-1.4-8,.56-31.37,14.73-33.95a9.26,9.26,0,0,1,8.22,2c2,1.85,2.71,1.89,5.07.54l7.44-4.11c1.89-1,2.92-.23,2.49,1.92l-3.93,19.8c-1.85,9.3-.35,9.79.72,9.6,2.59-.47,6.27-5.44,9.77-15.16l3.23-16c.5-2.62,1.82-3.55,4.41-3.17l4.13.7c4.65.69,3.17,1.11,6.85-2a19.66,19.66,0,0,1,8.78-4.52c3.67-.66,6.17.49,7.5,2.55,1,1.57,1.7,1.6,2.95.3,2.25-2.4,6.16-5.87,11.2-6.79s7.83,1.49,8.51,5.35c.34,1.93.17,4.34-.64,8.55l-1.74,8.67c-1.83,9-.5,9.82.73,9.6,2.59-.47,6.27-5.45,9.78-15.2l3.22-16c.5-2.63,1.82-3.56,4.41-3.18l4.05.64c4.73.75,3.25,1.17,6.93-1.95a19.56,19.56,0,0,1,8.85-4.53c5-.9,7.82,1.42,8.51,5.35.36,2,.12,4.43-.71,8.57l-1.74,8.66c-1.76,9-.49,9.83.8,9.59,2.59-.47,6.42-5.69,10-16C257,103.09,261.84,105.58,260.87,108.45Zm-137.37,15a2.7,2.7,0,0,0-2.71-1c-5.39,1-8.18,14.22-7.41,18.6.34,1.93,1.32,2.44,2.76,2.18a7.73,7.73,0,0,0,4.59-3.45,13.2,13.2,0,0,0,1.79-4.16l1.8-8.75A5.13,5.13,0,0,0,123.5,123.49ZM155,99.73c-6.16,1.12-12.07-.61-18.72-3.74-2.17-1-3.21-.86-4.77,1a20,20,0,0,1-12.35,7.61c-9.75,1.78-15.36-4.35-16.41-10.28-1-5.61,1.39-13.61,11.71-15.49a16.89,16.89,0,0,1,9.55.89c2,.66,3.06,0,3.53-2l.79-3.46L132.61,53c1.08-5.14,4.38-11.18,10.2-13.78A3.55,3.55,0,0,1,147.73,41c1.59,2.94,1.54,3.55-.43,6.46a17.3,17.3,0,0,0-2.6,6.26l-.31,1.5c-.18.88.15,1.33,1,1.35,6.78.13,13.85-5.16,12.5-12.82-1-5.86-6.33-10.16-15.52-8.49-13.19,2.4-18.48,14-17.18,21.41a16.33,16.33,0,0,0,1.26,3.86c1.34,2.91,1.15,4.13-1,6.48l-2.09,2.17c-1.65,1.83-3.5,1.66-4.79-.49a28.67,28.67,0,0,1-3.7-9.79C112.3,44.46,121.77,28.44,140.79,25c15.34-2.79,26.22,4.67,28.29,16.38,1.61,9.15-3.23,14.45-6.44,16.82-1.66,1.33-1.69,2.1-.06,3.42a21.62,21.62,0,0,1,7.62,13.25C172,84.82,167.9,97.38,155,99.73ZM120.6,87.79a8.47,8.47,0,0,0-4.45-.47c-3,.54-4.33,2.58-4,4.55.41,2.32,2.75,3,4.83,2.62a8.05,8.05,0,0,0,4.61-2.89C122.92,90.17,122.54,88.46,120.6,87.79Zm37.59-11.35c-.38-2.15-2.35-9.11-12.47-10.84-2.13-.38-3.45.55-3.88,2.75L140,76.94c-.35,1.77-.88,3.91-1.55,6.16-.63,2.07-.08,3.33,1.88,4.16,3.21,1.37,6.5,2.23,9.94,1.6C157,87.64,159.06,81.38,158.19,76.44ZM278.1,52.31c-4,11.79-10.34,23.23-20.49,25.08-5.2,1-9.57-1-11.07-6.92-3.9,6-9.33,10.64-17.29,12.08a18.36,18.36,0,0,1-11.15-1c-2.15-1-2.49-2.94-.8-4.53,3.69-3.39,4.76-2.48,6.44-2.79,2.48-.45,3.7-2.88,2.3-10.8-.49-2.8-1.29-6.4-2-9.76-.26-1.49-.93-1.54-1.33-.1-1,3.48-2,6.86-2.87,9.32v0C216.1,73.81,208.25,86.38,193,89.16c-11.11,2-17.46-2.69-19-11.6-1.94-11,2.64-31.79,19.82-34.92,9-1.64,17.77,3.07,14.76,15.87-1.95,7.67-7,13.36-20.19,14.65a2.42,2.42,0,0,0-2.13,3.36c.83,2.32,2.95,5,8.94,3.9,8.14-1.48,15.78-8.55,19.63-20,0,0,0,0,0,0,1.81-5.18,4.48-13.83,6.44-21,.75-2.77,2-3.77,4.9-3.53l3.6.28c2.83.17,3.94,1.33,4.13,4.27.65,10.69,4,21.22,4.8,25.84l.28,1.57c.2,1.58,1.07,1.84,2.07.47,2.51-3.54,4.39-7.77,6.33-13.12l3.84-18.93c.38-2-.43-2.91-2.43-2.54l-.32.06c-2.16.39-3.07-.55-2.61-2.68l.15-.53c.49-2.39,1.54-3.43,3.86-3.85l.23,0c2.24-.41,3.21-1.44,3.73-3.66l.71-3.45c.58-2.83,1.84-4.08,4.64-4.59l5-.91c2.48-.45,3.51.72,3,3.19l-.71,3.44c-.47,2.05.43,2.91,2.34,2.56l.32-.06c2-.37,2.91.58,2.46,2.7l-.14.62c-.5,2.3-1.56,3.34-3.71,3.74l-.24,0A4,4,0,0,0,263.89,34l-4.77,23.92C257,68,259,68.8,260.66,68.5c4-.73,8.39-7.65,12.38-18.68C274.14,46.73,279.12,49.23,278.1,52.31ZM189.81,65.49c5-.92,6.42-4.24,7.19-7.86.61-2.58.69-5-2.11-4.47-3.92.71-6.25,6.16-7.36,9.68C187,64.73,188,65.9,189.81,65.49Z"
         id="path872"
         style="fill:#121314;fill-opacity:1" />
    </g>
  </g>
</svg>
