<?xml version="1.0" encoding="UTF-8" standalone="no"?>
<svg
   version="1.0"
   width="241.53024pt"
   height="256.00012pt"
   viewBox="0 0 241.53024 256.00012"
   preserveAspectRatio="xMidYMid meet"
   id="svg854"
   xmlns="http://www.w3.org/2000/svg"
   xmlns:svg="http://www.w3.org/2000/svg">
  <defs
     id="defs858" />
  <g
     transform="matrix(0.1,0,0,-0.1,-17.234879,272)"
     fill="#000000"
     stroke="none"
     id="g852"
     style="fill:#0f1111;fill-opacity:1">
    <path
       d="m 922,2699 c -28,-14 -51,-36 -67,-64 -23,-39 -25,-51 -25,-178 V 2320 H 540 c -321,0 -336,-3 -360,-60 -18,-43 -3,-97 32,-123 22,-16 48,-22 117,-25 l 90,-4 6,-52 c 3,-28 39,-437 81,-909 51,-585 79,-867 88,-885 8,-15 24,-38 37,-51 49,-52 39,-51 748,-51 442,0 669,4 688,11 34,13 80,55 99,90 9,18 38,304 88,885 42,473 78,882 81,910 l 6,52 90,4 c 69,3 95,9 117,25 35,26 50,80 32,123 -24,57 -39,60 -360,60 h -290 v 137 c 0,127 -2,139 -25,179 -16,28 -39,49 -68,63 -42,20 -57,21 -458,21 -401,0 -415,-1 -457,-21 z m 806,-281 -3,-93 h -345 -345 l -3,93 -3,92 h 351 351 z m 402,-316 c 0,-4 -34,-391 -75,-859 -41,-469 -75,-857 -75,-863 0,-7 -198,-10 -600,-10 -421,0 -600,3 -600,11 0,6 -34,394 -75,863 -41,469 -75,856 -75,859 0,4 338,7 750,7 413,0 750,-3 750,-8 z"
       id="path850"
       style="fill:#0f1111;fill-opacity:1" />
  </g>
</svg>
