<?xml version="1.0" encoding="UTF-8" standalone="no"?>
<svg
   version="1.0"
   width="319.07886pt"
   height="315.60767pt"
   viewBox="0 0 319.07886 315.60767"
   preserveAspectRatio="xMidYMid meet"
   id="svg6"
   xmlns="http://www.w3.org/2000/svg"
   xmlns:svg="http://www.w3.org/2000/svg">
  <defs
     id="defs10" />
  <g
     transform="matrix(0.1,0,0,-0.1,-51.529949,358.6617)"
     fill="#000000"
     stroke="none"
     id="g4">
    <path
       d="m 741,3579 c -72,-22 -149,-89 -188,-162 -10,-19 -18,-64 -21,-113 -8,-147 -30,-120 596,-746 l 547,-548 -561,-562 C 486,818 514,853 516,710 c 0,-61 6,-85 27,-126 55,-108 157,-161 293,-152 132,9 120,-1 724,603 l 545,545 550,-549 c 432,-430 561,-553 600,-571 72,-35 191,-39 267,-11 68,26 132,85 161,149 33,71 30,190 -5,257 -20,37 -173,196 -582,605 l -556,555 544,545 c 380,381 551,558 566,590 54,107 33,242 -50,333 -63,69 -128,99 -219,99 -133,1 -113,18 -723,-591 l -548,-545 -42,39 c -24,22 -269,265 -546,540 -336,335 -519,510 -553,529 -41,23 -66,30 -123,32 -39,2 -86,-1 -105,-7 z"
       id="path2" />
  </g>
</svg>
