<?xml version="1.0" encoding="UTF-8" standalone="no"?>
<svg
   version="1.0"
   width="256pt"
   height="255.21938pt"
   viewBox="0 0 256 255.21938"
   preserveAspectRatio="xMidYMid meet"
   id="svg870"
   xmlns="http://www.w3.org/2000/svg"
   xmlns:svg="http://www.w3.org/2000/svg">
  <defs
     id="defs874" />
  <g
     transform="matrix(0.1,0,0,-0.1,-19,272.71938)"
     fill="#000000"
     stroke="none"
     id="g868"
     style="fill:#4d4d4d">
    <path
       d="M 475,2721 C 346,2688 248,2595 208,2468 191,2412 190,2354 190,1450 190,546 191,488 208,432 242,325 313,245 417,197 l 48,-22 h 765 765 l 57,27 c 124,58 208,175 216,302 4,63 2,73 -17,90 -27,25 -81,23 -102,-3 -9,-11 -19,-43 -22,-71 -8,-67 -47,-133 -99,-168 l -42,-27 -743,-3 c -717,-2 -744,-2 -781,17 -20,10 -49,32 -64,48 -61,64 -58,12 -58,1063 0,1051 -3,999 58,1063 15,16 44,37 64,48 35,18 64,19 508,19 h 470 v -129 c 0,-70 4,-151 10,-180 31,-166 175,-310 339,-341 29,-5 118,-10 197,-10 h 144 v -75 c 0,-88 17,-115 73,-115 63,0 69,18 65,187 -4,210 0,203 -283,497 -210,218 -234,239 -303,274 l -76,37 -550,2 c -303,1 -564,-2 -581,-6 z m 1153,-165 c 31,-16 444,-433 462,-465 10,-20 8,-21 -42,-23 -223,-7 -304,11 -376,85 -67,68 -81,114 -89,276 -7,152 -6,153 45,127 z"
       id="path858"
       style="fill:#4d4d4d" />
    <path
       d="m 650,1970 c -28,-28 -27,-84 2,-104 19,-14 72,-16 379,-16 344,0 357,1 374,20 26,29 24,79 -4,102 -22,17 -48,18 -377,18 -341,0 -355,-1 -374,-20 z"
       id="path860"
       style="fill:#4d4d4d" />
    <path
       d="M 2112,1488 C 1989,1365 1802,1176 1697,1067 L 1506,868 1478,697 c -15,-95 -27,-190 -28,-213 0,-53 31,-84 84,-84 48,0 342,48 377,61 15,6 209,197 433,424 368,375 406,417 406,447 0,29 -19,52 -173,205 -156,157 -176,173 -207,173 -31,0 -54,-20 -258,-222 z m 445,-185 c -11,-13 -26,-23 -33,-23 -6,0 -55,46 -108,101 l -97,102 28,29 28,30 102,-109 101,-108 z m -402,-403 -270,-270 -105,105 -105,105 270,270 270,270 105,-105 105,-105 z M 1703,569 c -15,-4 -43,-7 -60,-8 -36,-1 -39,7 -26,82 l 6,38 54,-53 54,-53 z"
       id="path862"
       style="fill:#4d4d4d" />
    <path
       d="m 672,1494 c -47,-33 -45,-100 4,-123 18,-8 174,-11 530,-11 h 505 l 24,25 c 30,29 32,64 6,96 l -19,24 -514,3 c -461,2 -515,1 -536,-14 z"
       id="path864"
       style="fill:#4d4d4d" />
    <path
       d="m 650,1000 c -26,-26 -26,-81 -2,-103 17,-15 58,-17 379,-17 348,0 361,1 378,20 26,29 24,79 -4,102 -22,17 -48,18 -377,18 -341,0 -355,-1 -374,-20 z"
       id="path866"
       style="fill:#4d4d4d" />
  </g>
</svg>
