<?xml version="1.0" encoding="UTF-8" standalone="no"?>
<svg
   version="1.0"
   width="255.90318pt"
   height="240pt"
   viewBox="0 0 255.90318 240"
   preserveAspectRatio="xMidYMid meet"
   id="svg870"
   xmlns="http://www.w3.org/2000/svg"
   xmlns:svg="http://www.w3.org/2000/svg">
  <defs
     id="defs874" />
  <g
     transform="matrix(0.1,0,0,-0.1,-16.096817,260)"
     fill="#000000"
     stroke="none"
     id="g868"
     style="fill:#333333">
    <path
       d="m 181,2574 c -23,-30 -26,-52 -10,-87 14,-31 18,-33 212,-107 128,-50 168,-70 172,-85 8,-33 235,-1273 235,-1285 0,-25 49,-60 85,-60 19,0 35,-1 35,-3 0,-2 -20,-59 -45,-127 -25,-68 -45,-136 -45,-150 0,-38 29,-60 78,-60 23,0 42,-2 42,-4 0,-3 -12,-27 -26,-53 -22,-41 -25,-58 -22,-119 4,-90 40,-154 112,-198 56,-35 149,-46 211,-26 48,16 110,72 138,124 33,62 30,156 -6,220 -15,27 -27,50 -27,52 0,2 119,4 265,4 h 266 l -28,-47 c -23,-40 -28,-59 -28,-118 0,-145 98,-245 240,-245 70,0 126,23 173,70 47,47 64,86 70,160 4,58 1,71 -26,123 l -31,57 h 53 c 61,0 86,19 86,67 0,66 34,63 -703,63 -527,0 -667,3 -667,13 0,6 15,53 33,102 l 32,90 630,2 c 442,2 636,6 651,14 12,6 26,21 32,33 20,45 352,1093 352,1113 0,24 -46,73 -69,73 -9,0 -375,16 -813,35 -523,23 -806,31 -822,25 -51,-19 -62,-91 -21,-130 l 26,-24 746,-33 c 410,-17 748,-34 751,-37 3,-4 -59,-209 -139,-456 L 2235,1110 H 1588 942 l -6,27 c -3,16 -55,300 -116,633 -61,333 -117,619 -124,637 -14,29 -32,38 -220,112 -116,45 -221,81 -240,81 -25,0 -40,-7 -55,-26 z M 1206,516 c 52,-52 44,-128 -18,-166 -40,-24 -60,-25 -103,-4 -105,49 -64,204 54,204 24,0 42,-9 67,-34 z m 877,23 c 62,-32 77,-114 31,-168 -81,-96 -226,6 -173,122 22,48 93,71 142,46 z"
       id="path866"
       style="fill:#333333" />
  </g>
</svg>
