<?xml version="1.0" encoding="UTF-8" standalone="no"?>
<svg
   version="1.0"
   width="265.86044pt"
   height="319.91794pt"
   viewBox="0 0 265.86044 319.91794"
   preserveAspectRatio="xMidYMid meet"
   id="svg6"
   xmlns="http://www.w3.org/2000/svg"
   xmlns:svg="http://www.w3.org/2000/svg">
  <defs
     id="defs10" />
  <g
     transform="matrix(0.1,0,0,-0.1,-56.073062,374.91795)"
     fill="#000000"
     stroke="none"
     id="g4"
     style="fill:#ffffff;fill-opacity:1">
    <path
       d="M 1815,3731 C 1759,3704 597,2539 575,2488 c -34,-84 -9,-152 94,-252 99,-95 157,-114 239,-81 25,11 151,130 385,363 l 347,347 V 1785 c 0,-678 4,-1093 10,-1115 11,-41 61,-94 103,-109 16,-6 76,-11 135,-11 148,1 200,25 237,113 13,32 15,168 15,1124 v 1088 l 358,-357 c 196,-196 370,-362 385,-368 74,-27 134,-4 228,86 106,103 131,173 89,258 -28,58 -1191,1220 -1242,1241 -49,20 -94,19 -143,-4 z"
       id="path2"
       style="fill:#ffffff;fill-opacity:1" />
  </g>
</svg>
