<?xml version="1.0" encoding="UTF-8" standalone="no"?>
<svg
   version="1.0"
   width="260pt"
   height="260pt"
   viewBox="0 0 260 260"
   preserveAspectRatio="xMidYMid meet"
   id="svg1068"
   xmlns="http://www.w3.org/2000/svg"
   xmlns:svg="http://www.w3.org/2000/svg">
  <defs
     id="defs1072" />
  <g
     transform="matrix(0.0581225,0,0,-0.0581225,-47.119276,290.94212)"
     fill="#000000"
     stroke="none"
     id="g254">
    <path
       d="M 2830,5000 C 2119,4926 1488,4521 1119,3902 884,3507 777,3030 820,2565 906,1632 1576,841 2480,606 c 221,-57 327,-70 570,-70 236,0 343,12 554,65 779,195 1407,819 1610,1599 57,221 70,327 70,570 0,231 -12,343 -60,535 -99,399 -298,751 -588,1041 -138,138 -220,204 -373,305 -259,168 -568,286 -878,334 -120,19 -436,27 -555,15 z m 304,-953 c 38,-21 50,-43 218,-379 145,-293 181,-358 200,-362 13,-3 185,-29 383,-57 198,-28 375,-58 393,-66 67,-32 102,-109 82,-182 -13,-49 -6,-41 -367,-394 -117,-114 -213,-215 -213,-223 0,-9 29,-185 65,-392 71,-416 72,-421 14,-479 -37,-39 -89,-57 -136,-48 -19,3 -188,87 -375,186 -187,98 -344,179 -347,179 -4,0 -160,-81 -348,-179 -188,-99 -357,-183 -376,-186 -47,-9 -99,9 -136,48 -58,58 -57,63 15,481 36,209 64,387 62,396 -2,9 -124,135 -273,279 -148,145 -278,275 -287,289 -28,43 -32,95 -10,145 37,83 39,83 476,148 215,32 392,58 394,58 1,1 83,162 180,358 168,337 180,359 218,380 24,14 56,23 84,23 28,0 60,-9 84,-23 z"
       id="path250" />
    <path
       d="m 2924,3302 c -106,-217 -126,-252 -157,-271 -28,-17 -92,-30 -303,-61 -147,-22 -268,-41 -270,-43 -2,-2 82,-86 186,-186 105,-101 198,-197 207,-215 23,-45 21,-83 -26,-354 -24,-134 -41,-246 -38,-248 2,-3 107,50 233,118 311,165 278,165 588,0 126,-67 231,-120 233,-118 3,2 -14,114 -38,248 -47,271 -49,309 -26,354 9,17 102,114 207,214 104,101 188,185 186,187 -2,2 -124,22 -270,43 -213,31 -274,43 -303,61 -31,19 -51,53 -157,271 -66,136 -123,248 -126,248 -3,0 -60,-112 -126,-248 z"
       id="path252" />
  </g>
  <circle
     id="path328"
     style="fill:#000000;stroke:#000000;stroke-width:0.385591"
     cx="259.34329"
     cy="90.254173"
     r="0.46390903" />
</svg>
