<?xml version="1.0" encoding="UTF-8" standalone="no"?>
<svg
   version="1.0"
   width="260pt"
   height="260pt"
   viewBox="0 0 260 260"
   preserveAspectRatio="xMidYMid meet"
   id="svg1068"
   xmlns="http://www.w3.org/2000/svg"
   xmlns:svg="http://www.w3.org/2000/svg">
  <defs
     id="defs1072" />
  <g
     transform="matrix(0.05084486,0,0,-0.05084486,-29.040322,289.07385)"
     fill="#000000"
     stroke="none"
     id="g470">
    <path
       d="M 2885,5679 C 2085,5596 1384,5161 958,4483 487,3735 443,2767 843,1980 1298,1085 2226,535 3220,574 c 257,9 456,43 689,118 398,127 742,339 1038,639 404,409 641,894 725,1484 17,118 17,512 0,630 -70,493 -249,915 -544,1284 -94,118 -273,297 -393,394 -361,291 -782,474 -1250,543 -123,18 -478,26 -600,13 z m 415,-1163 c 499,-76 889,-459 975,-960 12,-72 15,-187 15,-605 v -516 l -24,-50 c -25,-54 -74,-103 -123,-124 -25,-10 -36,-25 -53,-71 -50,-135 -156,-252 -284,-313 -84,-41 -133,-53 -241,-63 -69,-5 -84,-10 -110,-35 -46,-43 -75,-49 -234,-49 -135,0 -152,2 -192,23 -66,35 -89,82 -89,182 0,101 24,149 90,183 40,20 59,22 192,22 161,0 195,-8 237,-54 22,-23 32,-26 91,-26 112,0 211,50 270,135 27,39 28,45 13,45 -36,0 -120,48 -154,89 -55,64 -59,89 -59,392 0,244 2,278 19,314 48,105 117,145 264,153 l 97,5 v 147 c 0,123 -4,163 -24,243 -45,178 -151,344 -294,463 -74,61 -233,144 -327,169 -94,26 -294,31 -396,11 -154,-31 -302,-107 -420,-214 -84,-78 -145,-161 -198,-273 -63,-131 -73,-182 -78,-375 l -5,-171 99,-5 c 85,-4 107,-9 152,-34 30,-16 65,-43 78,-61 49,-64 52,-89 52,-383 1,-256 -1,-278 -20,-320 -27,-60 -64,-98 -124,-126 -45,-22 -64,-24 -190,-24 -126,0 -145,3 -191,24 -59,27 -116,90 -132,145 -9,27 -12,190 -12,548 0,423 3,525 16,603 107,625 691,1049 1314,956 z"
       id="path468" />
  </g>
</svg>
