<?xml version="1.0" encoding="UTF-8" standalone="no"?>
<svg
   version="1.0"
   width="260pt"
   height="260pt"
   viewBox="0 0 260 260"
   preserveAspectRatio="xMidYMid meet"
   id="svg1068"
   xmlns="http://www.w3.org/2000/svg"
   xmlns:svg="http://www.w3.org/2000/svg">
  <defs
     id="defs1072" />
  <g
     transform="matrix(0.05080214,0,0,-0.05080214,-35.097335,269.44333)"
     fill="#000000"
     stroke="none"
     id="g8">
    <path
       d="m 2975,4999 c -503,-63 -969,-292 -1325,-649 -100,-100 -193,-212 -261,-311 l -40,-59 h 43 c 87,0 196,-42 274,-105 23,-19 96,-113 165,-214 68,-99 126,-180 129,-180 3,0 31,39 62,87 339,516 980,765 1581,613 274,-69 487,-190 688,-390 150,-151 255,-309 330,-496 33,-84 82,-267 92,-347 l 7,-48 h -73 c -96,0 -139,-14 -176,-55 -35,-40 -48,-92 -32,-135 19,-56 571,-850 605,-871 44,-27 114,-25 156,3 34,24 554,764 591,843 24,52 24,89 -2,135 -33,58 -69,74 -181,78 l -97,4 -5,37 c -3,20 -8,61 -11,91 -18,163 -78,399 -142,557 -313,776 -1012,1312 -1843,1413 -100,12 -435,11 -535,-1 z"
       id="path2" />
    <path
       d="m 1335,3674 c -21,-7 -48,-23 -61,-36 -34,-35 -554,-796 -570,-834 -19,-46 -18,-80 7,-124 33,-58 69,-74 181,-78 l 97,-4 5,-37 c 3,-20 8,-61 11,-91 3,-30 15,-102 26,-160 171,-888 881,-1602 1769,-1779 179,-36 289,-44 513,-38 225,5 317,17 514,68 497,127 956,443 1260,867 l 62,87 -32,2 c -106,8 -207,47 -283,108 -22,19 -96,114 -165,214 -68,99 -126,180 -129,180 -3,0 -31,-39 -62,-87 -339,-516 -980,-765 -1581,-613 -274,69 -487,190 -688,390 -150,151 -255,309 -330,496 -33,84 -82,267 -92,348 l -7,47 h 73 c 96,0 139,14 176,55 35,40 48,92 32,135 -15,46 -569,848 -597,866 -39,26 -88,33 -129,18 z"
       id="path4" />
    <path
       d="m 3169,3657 c -45,-30 -69,-80 -69,-143 0,-52 -9,-64 -47,-64 -34,0 -145,-65 -184,-107 -84,-91 -121,-236 -102,-392 13,-99 48,-177 106,-235 90,-89 179,-116 389,-116 124,0 130,-1 153,-25 22,-21 25,-33 25,-103 0,-65 -4,-84 -21,-106 -20,-26 -20,-26 -168,-26 -170,0 -177,3 -192,85 -20,106 -110,160 -202,121 -43,-18 -78,-58 -86,-98 -17,-84 26,-213 98,-291 39,-42 150,-107 184,-107 38,0 47,-12 47,-64 0,-99 60,-166 150,-166 90,0 150,67 150,166 0,52 9,64 47,64 34,0 145,65 184,107 84,91 121,236 102,392 -13,99 -48,177 -106,235 -90,89 -179,116 -389,116 -124,0 -130,1 -153,25 -22,21 -25,33 -25,103 0,65 4,84 21,106 20,26 20,26 168,26 170,0 177,-3 192,-85 20,-106 110,-160 202,-121 43,18 78,58 86,98 17,84 -26,213 -98,291 -39,42 -150,107 -184,107 -38,0 -47,12 -47,64 0,99 -60,166 -150,166 -32,0 -58,-7 -81,-23 z"
       id="path6" />
  </g>
</svg>
