<?xml version="1.0" encoding="UTF-8" standalone="no"?>
<svg
   version="1.0"
   width="260pt"
   height="260pt"
   viewBox="0 0 260 260"
   preserveAspectRatio="xMidYMid meet"
   id="svg1068"
   xmlns="http://www.w3.org/2000/svg"
   xmlns:svg="http://www.w3.org/2000/svg">
  <defs
     id="defs1072" />
  <g
     transform="matrix(0.05085196,0,0,-0.05085196,-17.052199,272.8203)"
     fill="#000000"
     stroke="none"
     id="g6">
    <path
       d="M 2697,5360 C 1660,5279 774,4581 457,3594 319,3167 298,2692 396,2250 587,1391 1217,686 2052,395 c 465,-162 984,-185 1458,-65 681,172 1257,610 1607,1223 159,279 271,622 314,962 18,145 16,473 -5,625 -62,456 -225,850 -510,1230 -86,116 -330,362 -447,452 -363,281 -801,465 -1239,522 -148,19 -395,27 -533,16 z M 4080,4299 c 160,-26 284,-145 319,-307 7,-36 11,-241 11,-631 v -578 l -23,-43 c -54,-102 -203,-106 -263,-7 -18,30 -19,64 -24,630 -4,517 -7,599 -20,607 -9,6 -461,10 -1172,10 -1038,0 -1158,-2 -1172,-16 -14,-14 -16,-134 -16,-1169 0,-1083 1,-1154 18,-1174 17,-21 21,-21 607,-23 561,-3 592,-4 622,-22 66,-40 91,-131 53,-193 -42,-70 -21,-68 -655,-71 -365,-2 -595,1 -638,8 -168,26 -296,149 -326,314 -15,83 -15,2269 0,2352 29,158 158,287 311,313 78,13 2288,13 2368,0 z m -374,-760 c 104,-50 110,-199 11,-259 -31,-19 -57,-20 -827,-20 -770,0 -796,1 -827,20 -99,60 -93,208 10,259 41,21 52,21 816,21 762,0 775,0 817,-21 z m -888,-599 c 45,-28 72,-76 72,-130 0,-54 -27,-102 -72,-130 -31,-19 -51,-20 -373,-20 -310,0 -343,2 -375,18 -38,20 -80,89 -80,132 0,43 42,112 80,132 32,16 65,18 375,18 322,0 342,-1 373,-20 z m 805,-146 c 206,-53 377,-216 439,-419 32,-102 30,-235 -4,-335 -15,-41 -23,-77 -19,-80 42,-29 321,-253 335,-269 26,-29 33,-109 12,-149 -18,-34 -48,-53 -110,-70 -69,-19 -111,0 -283,133 l -156,121 -86,-43 c -261,-132 -532,-71 -728,162 -113,135 -161,342 -118,505 56,210 232,387 440,445 69,18 205,18 278,-1 z"
       id="path2-9" />
    <path
       d="m 3415,2501 c -84,-22 -154,-80 -196,-161 -35,-69 -34,-185 4,-262 47,-97 128,-148 243,-156 101,-6 163,16 230,82 66,67 88,129 82,230 -10,157 -113,260 -268,271 -36,2 -78,1 -95,-4 z"
       id="path4" />
  </g>
</svg>
