<?xml version="1.0" encoding="UTF-8" standalone="no"?>
<svg
   version="1.0"
   width="260pt"
   height="260pt"
   viewBox="0 0 260 260"
   preserveAspectRatio="xMidYMid meet"
   id="svg1068"
   xmlns="http://www.w3.org/2000/svg"
   xmlns:svg="http://www.w3.org/2000/svg">
  <defs
     id="defs1072" />
  <g
     transform="matrix(0.0508439,0,0,-0.05088391,-29.034849,284.20745)"
     fill="#000000"
     stroke="none"
     id="g12">
    <path
       d="M 2885,5579 C 2326,5521 1813,5292 1404,4918 458,4055 297,2623 1028,1571 c 88,-128 190,-246 313,-368 400,-394 891,-632 1474,-715 119,-17 512,-16 635,1 586,81 1092,331 1497,742 404,409 641,894 725,1484 17,118 17,512 0,630 -70,493 -249,915 -544,1284 -94,118 -273,297 -393,394 -361,291 -782,474 -1250,543 -123,18 -478,26 -600,13 z m -167,-2551 -3,-1623 -270,1 c -258,1 -273,2 -330,24 -43,17 -77,40 -121,84 -73,73 -100,137 -110,256 l -7,80 h -68 c -88,0 -116,12 -134,54 -16,39 -12,60 18,94 18,19 30,22 104,22 h 83 v 280 280 h -79 c -70,0 -83,3 -107,24 -39,33 -39,89 0,122 24,21 37,24 107,24 h 79 v 280 280 h -79 c -70,0 -83,3 -107,24 -39,33 -39,89 0,122 24,21 37,24 107,24 h 79 v 280 280 h -83 c -76,0 -86,2 -107,25 -32,34 -32,87 -2,118 19,18 36,23 106,25 l 83,4 7,79 c 10,118 38,182 110,255 99,99 116,103 449,103 l 277,1 z m 1672,1591 c 101,-47 175,-143 199,-257 16,-75 16,-2589 0,-2664 -34,-158 -154,-268 -316,-289 -37,-4 -364,-8 -725,-9 h -658 v 1625 1625 l 723,-2 722,-3 z"
       id="path2" />
    <path
       d="m 2057,4203 c -4,-3 -7,-42 -7,-85 v -78 h 88 c 79,0 91,2 109,23 11,12 23,30 26,40 10,28 -19,86 -48,97 -29,11 -158,14 -168,3 z"
       id="path4" />
    <path
       d="m 2050,3395 v -85 h 84 c 74,0 88,3 111,23 21,17 27,32 27,62 0,30 -6,45 -27,62 -23,20 -37,23 -111,23 h -84 z"
       id="path6" />
    <path
       d="m 2050,2665 v -85 h 85 c 78,0 88,2 110,25 38,37 37,88 -1,123 -22,19 -36,22 -110,22 h -84 z"
       id="path8" />
    <path
       d="m 2052,1938 3,-83 65,-3 c 110,-5 150,18 150,87 0,62 -32,81 -137,81 h -84 z"
       id="path10" />
  </g>
</svg>
