<?xml version="1.0" encoding="UTF-8" standalone="no"?>
<svg
   version="1.0"
   width="260pt"
   height="260pt"
   viewBox="0 0 260 260"
   preserveAspectRatio="xMidYMid meet"
   id="svg1068"
   xmlns="http://www.w3.org/2000/svg"
   xmlns:svg="http://www.w3.org/2000/svg">
  <defs
     id="defs1072" />
  <g
     transform="matrix(0.05078125,0,0,-0.05078125,-37.070312,279.80469)"
     fill="#000000"
     stroke="none"
     id="g75">
    <path
       d="m 2805,5488 c -25,-22 -27,-31 -55,-297 -16,-150 -30,-275 -32,-277 -2,-2 -44,-17 -93,-34 -50,-17 -141,-56 -204,-86 -69,-33 -118,-51 -125,-46 -6,5 -94,76 -196,158 -226,183 -227,184 -264,184 -26,0 -74,-43 -358,-328 -285,-284 -328,-332 -328,-358 0,-37 1,-38 184,-264 82,-102 153,-190 158,-196 5,-7 -14,-57 -46,-125 -30,-63 -69,-154 -86,-204 -17,-49 -32,-91 -34,-93 -2,-2 -127,-16 -277,-32 -266,-28 -275,-30 -297,-55 l -22,-26 v -459 -459 l 22,-26 c 22,-25 32,-27 258,-50 129,-14 254,-27 276,-30 l 42,-6 32,-92 c 17,-51 56,-143 86,-206 32,-68 51,-118 46,-125 -5,-6 -76,-94 -158,-196 -183,-226 -184,-227 -184,-264 0,-26 43,-74 328,-358 284,-285 332,-328 358,-328 37,0 38,1 264,184 102,82 190,153 196,158 7,5 56,-13 125,-46 63,-30 154,-69 204,-86 49,-17 91,-32 93,-34 2,-2 16,-127 32,-277 28,-266 30,-275 55,-296 l 26,-23 h 459 459 l 26,23 c 25,21 27,30 55,296 16,150 30,275 32,277 2,2 44,17 93,34 50,17 141,56 204,86 69,33 118,51 125,46 6,-5 94,-76 196,-158 228,-184 228,-184 264,-184 26,0 74,43 358,328 285,284 328,332 328,358 0,37 -1,38 -184,264 -82,102 -153,190 -158,196 -5,7 14,57 46,125 30,63 69,154 86,204 17,49 32,91 34,93 2,1 127,16 277,32 267,28 274,29 296,55 l 23,26 v 459 459 l -22,26 c -22,25 -31,27 -297,55 -150,16 -275,31 -277,32 -2,2 -17,44 -34,93 -17,50 -56,141 -86,204 -32,68 -51,118 -46,125 5,6 76,94 158,196 183,226 184,227 184,264 0,26 -43,74 -328,358 -284,285 -332,328 -358,328 -36,0 -36,0 -264,-184 -102,-82 -190,-153 -196,-158 -7,-5 -56,13 -125,46 -63,30 -154,69 -204,86 -49,17 -91,32 -93,34 -2,2 -16,127 -32,277 -28,266 -30,275 -55,297 l -26,22 h -459 -459 z m 673,-1264 c 799,-118 1299,-948 1027,-1704 -157,-436 -540,-760 -995,-841 -111,-20 -355,-17 -465,5 -517,106 -909,496 -1021,1016 -26,119 -26,381 0,500 121,560 559,960 1131,1033 75,10 227,6 323,-9 z"
       id="path67" />
    <path
       d="m 3115,4066 c -237,-37 -448,-146 -621,-320 -99,-99 -156,-177 -214,-295 -82,-162 -115,-308 -115,-501 0,-75 6,-166 14,-205 30,-154 99,-317 184,-438 l 40,-58 48,91 c 131,248 341,414 614,485 33,9 110,19 171,22 380,20 715,-170 893,-507 l 49,-92 42,62 c 198,292 251,658 143,989 -112,345 -395,624 -741,731 -150,47 -346,61 -507,36 z m 325,-276 c 198,-78 308,-288 256,-490 -82,-317 -475,-426 -702,-194 -230,234 -119,619 201,701 68,17 178,10 245,-17 z"
       id="path69" />
    <path
       d="m 3206,3644 c -94,-29 -176,-143 -176,-244 0,-53 30,-127 70,-173 126,-143 363,-99 430,80 38,102 17,197 -60,274 -73,73 -162,94 -264,63 z"
       id="path71" />
    <path
       d="m 3124,2675 c -255,-56 -479,-249 -570,-491 l -26,-69 34,-28 c 97,-83 252,-169 378,-210 122,-39 207,-52 350,-52 184,0 332,32 486,105 67,32 191,112 243,157 l 33,28 -29,77 c -76,194 -245,365 -441,444 -130,52 -322,69 -458,39 z"
       id="path73" />
  </g>
</svg>
