<?xml version="1.0" encoding="UTF-8" standalone="no"?>
<svg
   version="1.0"
   width="737.00781pt"
   height="737.00781pt"
   viewBox="0 0 737.00781 737.00781"
   preserveAspectRatio="xMidYMid meet"
   id="svg2248"
   xmlns="http://www.w3.org/2000/svg"
   xmlns:svg="http://www.w3.org/2000/svg">
  <defs
     id="defs2252" />
  <g
     id="g4446"
     transform="matrix(1.4288833,0,0,1.4288833,2.7093139,31.748586)">
    <path
       d="M 510.14844,372.94531 468.05859,232.86328 c -3.35937,-11.1875 -10.875,-20.39062 -21.16015,-25.92578 -10.28125,-5.53125 -22.10547,-6.72656 -33.28907,-3.36719 l -32.4414,9.7461 c 4.69531,-7.34375 7.25781,-16.15235 6.82422,-25.50391 L 381.22656,41.699219 C 380.68359,30.03125 375.63281,19.277344 367.00391,11.410156 358.37109,3.542969 347.19141,-0.492188 335.52734,0.046875 L 189.41406,6.816406 C 177.75,7.355469 166.99219,12.40625 159.125,21.039062 c -7.86719,8.628907 -11.90234,19.808594 -11.35937,31.472657 l 6.76562,146.117191 c 0.14063,3.04687 0.60156,6.0039 1.33203,8.85156 L 63.441406,197.83594 C 51.828125,196.625 40.4375,200.00781 31.367188,207.36328 22.296875,214.71875 16.636719,225.16797 15.421875,236.78125 L 0.242188,382.26562 c -1.214844,11.61329 2.171874,23.00782 9.527343,32.07813 7.355469,9.06641 17.804688,14.73047 29.417969,15.94141 l 145.48438,15.17968 c 1.54296,0.16016 3.08593,0.23828 4.61718,0.23828 9.98438,0 19.59375,-3.39062 27.45703,-9.76562 9.07032,-7.35938 14.73047,-17.80469 15.94141,-29.42188 l 11.22656,-107.57031 c 0.10547,0.38672 0.19922,0.77735 0.31641,1.16406 l 42.08984,140.08594 c 3.35938,11.1836 10.8711,20.39063 21.15625,25.92188 6.45703,3.47656 13.52344,5.23828 20.65625,5.23828 4.22657,0 8.47657,-0.6211 12.63672,-1.8711 l 140.08594,-42.08593 c 23.08594,-6.9375 36.22656,-31.36328 29.29297,-54.45313 z M 181.29687,41.25 c 2.46875,-2.707031 5.84375,-4.292969 9.50391,-4.460938 l 146.11719,-6.769531 c 0.21484,-0.0078 0.43359,-0.01563 0.64844,-0.01563 3.42187,0 6.67968,1.257813 9.22656,3.582032 2.70703,2.46875 4.28906,5.839843 4.46094,9.5 l 6.76562,146.117187 c 0.35156,7.55469 -5.51172,13.98438 -13.0625,14.33594 l -146.11719,6.76562 c -7.57422,0.33203 -13.98437,-5.51172 -14.33593,-13.0664 L 177.73437,51.125 c -0.16796,-3.660156 1.09766,-7.167969 3.5625,-9.875 z m 36.73047,216.67187 -15.17968,145.48047 c -0.37891,3.64453 -2.15625,6.92188 -5,9.23047 C 195,414.94141 191.42187,416 187.78516,415.625 L 42.300781,400.44531 c -3.644531,-0.38281 -6.921875,-2.15625 -9.226562,-5.0039 -2.308594,-2.84375 -3.371094,-6.41797 -2.992188,-10.0625 L 45.261719,239.89453 c 0.382812,-3.64453 2.15625,-6.92187 5.003906,-9.22656 2.84375,-2.3086 6.417969,-3.3711 10.0625,-2.99219 l 145.480465,15.17969 c 3.64453,0.3789 6.92188,2.15625 9.23047,5 2.3086,2.84765 3.36719,6.42187 2.98828,10.0664 z m 29.14453,9.78125 0.69922,-6.66796 c 0.82422,-7.92579 -0.49218,-15.74219 -3.74218,-22.79297 l 63.92968,-2.96094 -34.53515,10.375 c -11.88282,3.57031 -21.11719,11.78125 -26.35157,22.04687 z M 472.22266,398.66406 332.13672,440.75 c -3.50391,1.05469 -7.21875,0.67969 -10.44141,-1.05859 -3.22656,-1.73438 -5.58594,-4.6211 -6.64062,-8.13282 L 272.96875,291.47656 c -2.17969,-7.24219 1.94531,-14.90625 9.1875,-17.08203 l 140.08594,-42.08984 c 1.30468,-0.39063 2.63672,-0.58594 3.96484,-0.58594 2.23828,0 4.45313,0.55469 6.48047,1.64453 3.22656,1.73438 5.58203,4.62109 6.63672,8.13281 l 42.08984,140.08203 c 2.17188,7.2461 -1.94922,14.90625 -9.1914,17.08594 z m 0,0"
       id="path4428" />
    <path
       d="m 213.01562,130.95703 c 0.24219,0 0.48438,-0.008 0.73047,-0.0195 8.27344,-0.39453 14.66407,-7.42578 14.26563,-15.69922 l -1.67188,-34.964842 35.4375,-1.699219 c 8.27344,-0.394531 14.66016,-7.425781 14.26563,-15.703125 -0.39453,-8.273438 -7.39844,-14.675782 -15.70313,-14.265625 l -44.15625,2.113281 c -5.67578,0.273438 -10.90625,2.738281 -14.72656,6.945312 -3.82031,4.207032 -5.77734,9.648438 -5.50391,15.324219 l 2.08985,43.683599 c 0.38672,8.03125 7.01953,14.28515 14.97265,14.28515 z m 0,0"
       id="path4430" />
    <path
       d="M 127.51953,251.55469 83.539062,247.07812 C 77.894531,246.5 72.347656,248.16016 67.941406,251.75 c -4.40625,3.59375 -7.144531,8.68359 -7.722656,14.33594 l -4.429688,43.51172 c -0.839843,8.24218 5.164063,15.60156 13.40625,16.4414 0.515626,0.0547 1.027344,0.0781 1.539063,0.0781 7.601563,0 14.117187,-5.75781 14.90625,-13.48438 l 3.542969,-34.82422 35.296876,3.59375 c 8.23047,0.84375 15.60547,-5.16015 16.4414,-13.40625 0.84375,-8.24218 -5.16015,-15.60156 -13.40234,-16.4414 z m 0,0"
       id="path4432" />
    <path
       d="m 354.98047,271.03516 -42.31641,12.77343 c -11.23047,3.38672 -17.61328,15.27735 -14.22265,26.51172 l 12.63671,41.8711 c 1.95704,6.48437 7.91016,10.66796 14.35547,10.66796 1.4336,0 2.89453,-0.20703 4.33985,-0.64453 7.93359,-2.39062 12.42187,-10.76172 10.02734,-18.69531 l -10.11328,-33.51172 33.96484,-10.25 c 7.92969,-2.39453 12.41797,-10.76562 10.02735,-18.69922 -2.39453,-7.92968 -10.77344,-12.42187 -18.69922,-10.02343 z m 0,0"
       id="path4434" />
  </g>
</svg>
