<?xml version="1.0" encoding="UTF-8" standalone="no"?>
<svg
   version="1.0"
   width="737.00781pt"
   height="737.00781pt"
   viewBox="0 0 737.00781 737.00781"
   preserveAspectRatio="xMidYMid meet"
   id="svg2248"
   xmlns="http://www.w3.org/2000/svg"
   xmlns:svg="http://www.w3.org/2000/svg">
  <defs
     id="defs2252" />
  <path
     d="M 368.50391,3.3141263 A 365.18978,365.18978 0 1 0 733.69369,368.50389 365.18978,365.18978 0 0 0 368.50391,3.3141263 Z m 0,678.2095737 A 313.01981,313.01981 0 1 1 681.52372,368.50389 313.01981,313.01981 0 0 1 368.50391,681.5237 Z M 264.16397,368.50389 a 52.169969,52.169969 0 1 1 -52.16996,-52.16997 52.169969,52.169969 0 0 1 52.16996,52.16997 z m 156.50991,0 a 52.169969,52.169969 0 1 1 -52.16997,-52.16997 52.169969,52.169969 0 0 1 52.16997,52.16997 z m 156.5099,0 a 52.169969,52.169969 0 1 1 -52.16996,-52.16997 52.169969,52.169969 0 0 1 52.16996,52.16997 z"
     id="path5051"
     style="stroke-width:26.085" />
</svg>
