<?xml version="1.0" encoding="UTF-8" standalone="no"?>
<svg
   version="1.0"
   width="737.00781pt"
   height="737.00781pt"
   viewBox="0 0 737.00781 737.00781"
   preserveAspectRatio="xMidYMid meet"
   id="svg2248"
   xmlns="http://www.w3.org/2000/svg"
   xmlns:svg="http://www.w3.org/2000/svg">
  <defs
     id="defs2252" />
  <g
     id="g2915"
     transform="matrix(1.4291811,0,0,1.4291811,3.3300865,1.9058627)">
    <path
       d="m 424.615,44.077 c -3.804,-2.242 -8.402,-2.693 -12.57,-1.235 C 369.265,57.814 326.617,72.665 292.447,84.55 281.676,72.723 267.176,64.362 250.832,61.301 246.584,36.57 230.952,15.21 207.931,3.699 l -4.223,-2.111 c -7.406,-3.704 -16.418,-0.701 -20.124,6.708 -3.705,7.409 -0.702,16.42 6.708,20.124 l 4.223,2.111 c 12.925,6.463 22.11,17.906 25.75,31.376 C 188.576,69.16 164.487,96.529 162.2,129.815 113.329,146.799 61.453,164.85 10.045,182.843 4.028,184.948 0.001,190.627 0.001,197 H 0 v 160 h 0.013 c 0.001,6.205 3.864,12.01 10.054,14.165 l 402,140 c 1.604,0.56 3.271,0.835 4.933,0.835 1.793,0 3.578,-0.321 5.268,-0.955 0.406,-0.1 0.915,-0.213 1.514,-0.352 8.292,-1.917 30.318,-7.01 50.251,-23.396 C 499.226,466.588 512,436.207 512,397 V 197 C 512,192.858 511.007,94.986 424.615,44.077 Z M 237,90 c 24.813,0 45,20.187 45,45 0,24.813 -20.187,45 -45,45 -24.813,0 -45,-20.187 -45,-45 0,-24.813 20.187,-45 45,-45 z m -70.654,70.133 C 176.703,189.162 204.458,210 237,210 c 41.355,0 75,-33.645 75,-75 0,-8.43 -1.419,-16.53 -3.995,-24.099 C 339.318,100.008 377.019,86.878 415.182,73.527 481.22,116.806 482,196.181 482,197 c 0,69.574 -50.127,111.266 -67.09,123.376 l -82.955,-29.034 c -4.587,-1.605 -9.67,-0.89 -13.635,1.925 -3.965,2.812 -6.32,7.372 -6.32,12.233 V 367 c 0,8.271 -6.729,15 -15,15 -8.271,0 -15,-6.729 -15,-15 v -82.5 c 0,-6.388 -4.045,-12.075 -10.08,-14.17 L 60.597,196.953 c 35.859,-12.516 71.499,-24.915 105.749,-36.82 z M 252,343.414 30,266.33 V 218.086 L 252,295.17 Z M 30,298.087 252.807,375.451 C 256.774,396.237 275.075,412 297,412 c 11.17,0 21.395,-4.1 29.27,-10.862 L 402,427.643 v 48.25 L 30,346.341 Z m 372,97.771 -60.66,-21.23 c 0.426,-2.481 0.66,-5.027 0.66,-7.627 v -40.357 l 60,21 z M 482,397 c 0,41.032 -16.4,67.328 -50,79.975 V 345.059 c 11.016,-7.779 32.194,-24.785 50,-51.129 z"
       id="path2905" />
    <circle
       cx="412"
       cy="132"
       r="15"
       id="circle2907" />
    <circle
       cx="432"
       cy="202"
       r="15"
       id="circle2909" />
    <circle
       cx="382"
       cy="262"
       r="15"
       id="circle2911" />
    <circle
       cx="352"
       cy="192"
       r="15"
       id="circle2913" />
  </g>
</svg>
