<?xml version="1.0" encoding="UTF-8" standalone="no"?>
<svg
   version="1.0"
   width="737.00781pt"
   height="737.00781pt"
   viewBox="0 0 737.00781 737.00781"
   preserveAspectRatio="xMidYMid meet"
   id="svg2248"
   xmlns="http://www.w3.org/2000/svg"
   xmlns:svg="http://www.w3.org/2000/svg">
  <defs
     id="defs2252" />
  <g
     id="g3922"
     transform="matrix(1.4275449,0,0,1.4275449,3.0524119,3.0524119)">
    <path
       d="M 72.906,305.267 H 15 c -8.284,0 -15,6.716 -15,15 0,45.371 37.194,63.382 37.868,63.734 -0.226,0.723 -13.75,39.81 18.292,71.839 32.079,32.077 71.109,18.521 71.842,18.292 0.37,0.706 18.434,37.868 63.731,37.868 8.284,0 15,-6.716 15,-15 V 439.094 C 141.716,421.582 90.418,370.284 72.906,305.267 Z"
       id="path3916" />
    <path
       d="M 474.132,127.999 C 474.358,127.276 487.882,88.189 455.84,56.16 423.761,24.083 384.731,37.639 383.998,37.868 383.628,37.162 365.564,0 320.267,0 c -8.284,0 -15,6.716 -15,15 v 57.906 c 65.018,17.512 116.316,68.81 133.828,133.828 H 497 c 8.284,0 15,-6.716 15,-15 0,-45.371 -37.194,-63.382 -37.868,-63.735 z"
       id="path3918" />
    <path
       d="m 256,96.4 c -88.004,0 -159.6,71.596 -159.6,159.6 0,88.004 71.596,159.6 159.6,159.6 88.004,0 159.6,-71.596 159.6,-159.6 C 415.6,167.996 344.004,96.4 256,96.4 Z m -15,79.267 c -36.096,0 -65.333,29.166 -65.333,65.317 0,8.284 -6.716,15.008 -15,15.008 -8.284,0 -15,-6.708 -15,-14.992 v -0.016 c 0,-52.652 42.585,-95.317 95.317,-95.317 8.284,0 15.008,6.716 15.008,15 0,8.284 -6.708,15 -14.992,15 z"
       id="path3920" />
  </g>
</svg>
