<?xml version="1.0" encoding="UTF-8" standalone="no"?>
<svg
   version="1.0"
   width="737.00781pt"
   height="737.00781pt"
   viewBox="0 0 737.00781 737.00781"
   preserveAspectRatio="xMidYMid meet"
   id="svg2248"
   xmlns="http://www.w3.org/2000/svg"
   xmlns:svg="http://www.w3.org/2000/svg">
  <defs
     id="defs2252" />
  <path
     id="path1018"
     style="fill:#000000;stroke:none;stroke-width:0.382083"
     d="M 492 25.164062 C 489.19736 25.190013 486.45769 25.471231 483.90039 25.927734 C 481.26163 26.314339 478.79868 26.874033 476.82031 27.707031 C 474.14574 28.853278 439.75753 93.425139 400.78516 171.75195 C 362.19805 249.6903 329.72912 313.86417 329.3418 314.63867 C 329.28795 314.65224 327.64592 314.89628 327.53711 314.91797 C 325.35342 315.49113 264.35234 324.70262 191.80078 335.17383 C 189.04323 335.57098 187.41051 335.82533 184.61523 336.22656 C 124.87227 344.84333 69.734409 353.23347 42.757812 357.84766 C 33.258128 359.46342 26.78691 360.67447 24.816406 361.26562 C 9.1510442 365.46852 -0.018085995 379.2216 3.8027344 392.97656 C 4.0447392 394.04139 4.7945092 395.51202 6.1933594 397.54297 C 14.303304 410.38759 54.296232 450.45061 198.02344 591.43359 L 230.69336 623.35352 L 204.39453 773.91406 C 189.87542 856.82586 178.03125 927.89206 178.03125 931.71289 C 178.03125 934.15629 179.17823 937.02333 181.02539 939.93945 C 186.11715 948.69147 198.08732 958.23242 206.04688 958.23242 C 210.63186 958.23242 277.1141 925.37325 353.14844 885.63672 L 491.84375 813.04102 L 630.54102 885.63672 C 706.57534 925.37325 773.05759 958.23242 777.64258 958.23242 C 785.50539 958.23242 797.31239 948.91729 802.50781 940.25391 C 804.5534 937.16056 805.88086 934.09782 805.88086 931.50977 C 805.88086 927.68894 794.03474 856.62274 779.51562 773.71094 L 753.21289 623.13867 L 785.66602 591.43359 C 886.85277 492.17884 933.64404 445.70662 957.14844 420.71094 C 958.92354 418.84641 960.63277 417.03631 962.1582 415.40234 C 969.00473 407.94864 975.31676 400.95442 977.37891 397.76758 C 978.93084 395.56 979.85433 393.89564 980.10938 392.77344 C 983.93019 379.01848 974.76106 365.26541 959.0957 361.0625 C 951.45406 358.77001 880.00432 347.68902 800.53125 336.22656 C 720.6761 324.7641 655.34035 314.82935 654.57617 314.44727 C 654.19409 313.68311 622.09933 249.49356 583.12695 171.54883 C 543.39042 92.457847 509.38405 28.649422 505.94531 27.121094 C 502.31554 25.783806 497.15811 25.116301 492 25.164062 z M 491.50195 128.21094 C 495.58512 128.17828 499.66375 128.70506 502.53711 129.76367 C 505.2717 130.97903 532.31436 181.72161 563.91406 244.61719 C 594.90606 306.60121 620.42856 357.64623 620.73242 358.25391 C 621.3401 358.55775 673.29754 366.45893 736.80078 375.57422 C 800.00018 384.6895 856.81962 393.50117 862.89648 395.32422 C 875.35404 398.6665 882.64582 409.60461 879.60742 420.54297 C 878.08818 427.22756 852.86895 452.74932 725.55859 577.62891 L 699.125 603.45508 L 720.08984 723.47461 C 731.63588 789.40861 741.05469 845.9225 741.05469 848.96094 C 741.05469 856.55702 727.38151 869.31836 719.17773 869.31836 C 715.53161 869.31836 662.66207 843.1876 602.19727 811.58789 L 491.90234 753.85938 L 491.50195 754.06836 L 491.50195 128.21094 z "
     transform="scale(0.75)" />
</svg>
