<?xml version="1.0" encoding="UTF-8" standalone="no"?>
<svg
   version="1.0"
   width="737.00781pt"
   height="737.00781pt"
   viewBox="0 0 737.00781 737.00781"
   preserveAspectRatio="xMidYMid meet"
   id="svg2248"
   xmlns="http://www.w3.org/2000/svg"
   xmlns:svg="http://www.w3.org/2000/svg">
  <defs
     id="defs2252" />
  <g
     id="g3717"
     transform="matrix(1.4275455,0,0,1.4275455,3.0522583,3.0522583)">
    <path
       d="M 474.132,127.999 C 474.358,127.276 487.882,88.189 455.84,56.16 423.761,24.083 384.731,37.639 383.998,37.868 383.628,37.162 365.564,0 320.267,0 c -8.284,0 -15,6.716 -15,15 v 89.192 C 289.743,99.142 273.187,96.4 256,96.4 167.996,96.4 96.4,167.996 96.4,256 c 0,17.187 2.742,33.743 7.792,49.267 H 15 c -8.284,0 -15,6.716 -15,15 0,45.371 37.194,63.382 37.868,63.734 -0.226,0.723 -13.75,39.81 18.292,71.839 32.079,32.077 71.109,18.521 71.842,18.292 0.37,0.706 18.434,37.868 63.731,37.868 8.284,0 15,-6.716 15,-15 v -89.192 c 15.524,5.05 32.08,7.792 49.267,7.792 88.004,0 159.6,-71.596 159.6,-159.6 0,-17.187 -2.742,-33.743 -7.792,-49.267 H 497 c 8.284,0 15,-6.716 15,-15 0,-45.37 -37.194,-63.381 -37.868,-63.734 z M 176.733,479.313 c -12.932,-4.778 -22.975,-15.491 -25.491,-28.562 -0.953,-4.951 -4.331,-9.093 -8.989,-11.022 -4.656,-1.928 -9.974,-1.389 -14.149,1.438 -15.023,10.17 -36.832,7.356 -50.732,-6.542 -13.896,-13.892 -16.707,-35.701 -6.536,-50.731 2.826,-4.176 3.364,-9.492 1.434,-14.15 -1.93,-4.658 -6.073,-8.034 -11.024,-8.986 -13.07,-2.513 -23.782,-12.555 -28.56,-25.49 h 84.794 c 14.1,24.539 34.712,45.149 59.255,59.254 v 84.791 z M 256,385.6 c -71.462,0 -129.6,-58.138 -129.6,-129.6 0,-71.462 58.138,-129.6 129.6,-129.6 71.462,0 129.6,58.138 129.6,129.6 0,71.462 -58.138,129.6 -129.6,129.6 z M 394.521,176.733 c -14.1,-24.539 -34.712,-45.149 -59.255,-59.254 V 32.687 c 12.932,4.778 22.975,15.491 25.491,28.562 0.953,4.951 4.331,9.093 8.989,11.022 4.656,1.928 9.974,1.389 14.149,-1.438 15.023,-10.17 36.832,-7.356 50.732,6.542 13.896,13.892 16.707,35.701 6.536,50.731 -2.826,4.176 -3.364,9.492 -1.434,14.15 1.93,4.658 6.073,8.034 11.024,8.986 13.07,2.513 23.782,12.555 28.56,25.49 h -84.792 z"
       id="path3713" />
    <path
       d="m 255.984,160.667 c -52.652,0 -95.317,42.585 -95.317,95.317 V 256 c 0,8.284 6.716,14.992 15,14.992 8.284,0 15,-6.724 15,-15.008 0,-36.089 29.181,-65.317 65.333,-65.317 8.284,0 14.992,-6.716 14.992,-15 0,-8.284 -6.723,-15 -15.008,-15 z"
       id="path3715" />
  </g>
</svg>
