<?xml version="1.0" encoding="UTF-8" standalone="no"?>
<!-- Generator: Adobe Illustrator 19.0.0, SVG Export Plug-In . SVG Version: 6.00 Build 0)  -->

<svg
   version="1.1"
   id="Capa_1"
   x="0px"
   y="0px"
   viewBox="0 0 512.002 512.002"
   style="enable-background:new 0 0 512.002 512.002;"
   xml:space="preserve"
   xmlns="http://www.w3.org/2000/svg"
   xmlns:svg="http://www.w3.org/2000/svg"><defs
   id="defs890" />


<g
   id="g857">
</g>
<g
   id="g859">
</g>
<g
   id="g861">
</g>
<g
   id="g863">
</g>
<g
   id="g865">
</g>
<g
   id="g867">
</g>
<g
   id="g869">
</g>
<g
   id="g871">
</g>
<g
   id="g873">
</g>
<g
   id="g875">
</g>
<g
   id="g877">
</g>
<g
   id="g879">
</g>
<g
   id="g881">
</g>
<g
   id="g883">
</g>
<g
   id="g885">
</g>
<g
   id="g1994"
   transform="matrix(1.4923231,0,0,1.4923231,-9.7117412,-86.612228)"><path
     id="path1248"
     style="fill:#000000;stroke:none;stroke-width:0.133333"
     d="m 28.142578,63.419922 c -6.666666,0 -13.068097,0.400781 -14.134766,0.800781 -6.5333315,2.4 -8.6656244,8.934114 -4.2656245,12.800781 2.0000005,1.866666 5.4670575,2.265625 18.4003905,2.265625 17.866666,0 24.666797,2.134116 29.466797,8.800782 1.466667,2.133333 14.132812,38.267059 28.132813,80.400389 l 25.332032,76.5332 -2.79883,6.13282 c -4,8.8 -4,25.33359 0,32.93359 4.66666,8.8 9.33347,13.4668 17.4668,17.4668 l 7.59961,3.73242 h 82.40039 c 80.13333,0 82.53372,-0.1332 84.40039,-2.5332 2.53333,-3.6 2.40011,-7.99987 -0.5332,-10.53321 -2.26667,-2 -9.73374,-2.26758 -80.4004,-2.26758 -52,0 -79.60117,-0.53151 -83.20117,-1.46484 -12.66667,-3.46667 -18.39922,-16.00169 -13.19922,-29.06836 2.53333,-6.26666 -8.40078,-4.53216 91.19922,-14.79883 42.93333,-4.4 81.06797,-8.93333 84.66797,-10 12.93334,-3.73333 24.26653,-13.60117 28.5332,-25.20117 1.73333,-4.26667 21.4668,-86.93347 21.4668,-89.4668 0,-1.06667 -1.46784,-2.93331 -3.20117,-4 -0.98856,-0.65903 -3.99868,-1.14781 -12.07422,-1.58007 l -6.48047,30.48828 -0.0937,-0.0195 c -4.45974,20.1258 -12.99023,54.9057 -15.08398,60.04492 -2.53333,6.26667 -9.46667,12.53373 -16,14.40039 -2.8,0.8 -40.13307,4.93399 -83.06641,9.33398 -42.93333,4.4 -80.13412,8.26602 -82.80078,8.66602 l -4.80078,0.66601 -18.26563,-55.19921 C 99.33289,160.02774 92.905908,140.29809 90.134766,131.55469 l -0.01172,0.004 -7.824219,-24.66406 C 81.361042,104.65334 79.994711,100.93144 78.675781,96.886719 70.142448,70.88672 58.409244,63.153255 28.142578,63.419922 Z" /><path
     d="m 105.60849,326.48743 c -16.266665,5.86667 -25.999998,20.4 -24.533332,36.8 0.8,9.46666 4.533333,16.8 11.6,23.2 7.466662,6.66666 13.600002,9.06666 23.466662,9.06666 20,0.13334 35.06667,-14.93333 35.2,-34.93333 0,-24.26666 -23.73333,-41.86666 -45.73333,-34.13333 z m 19.06667,16.53333 c 14.66666,7.33334 14.26666,28.4 -0.8,35.06667 -6.66667,3.06666 -11.73334,2.53333 -18.66667,-1.6 -8.533332,-5.2 -11.066665,-19.33333 -4.93333,-27.73333 3.2,-4.4 10.53333,-8.13334 15.73333,-8.13334 2.26667,0 6.13333,1.06667 8.66667,2.4 z"
     id="path1250"
     style="fill:#000000;stroke:none;stroke-width:0.133333" /><path
     d="m 255.34182,326.88743 c -8.13333,2.8 -15.33333,8.66667 -19.73333,16.13333 -3.06667,5.46667 -3.6,7.73334 -3.6,16.93333 0,12.26667 2,17.6 9.73333,25.33334 13.73333,13.86666 36.4,14 49.86667,0.13333 7.73333,-7.86667 9.73333,-13.33333 9.73333,-25.46667 0,-9.19999 -0.53333,-11.46666 -3.6,-16.93333 -8.93333,-15.06666 -26.4,-21.73333 -42.4,-16.13333 z m 20,16.13333 c 13.73333,6.8 14.4,27.46667 1.06667,34.4 -9.2,4.8 -21.46667,1.73333 -26.4,-6.53333 -7.73334,-12.53334 2,-30.26667 16.66666,-30.26667 2.26667,0 6.13334,1.06667 8.66667,2.4 z"
     id="path1252"
     style="fill:#000000;stroke:none;stroke-width:0.133333" /><g
     transform="matrix(0.06963216,0,0,-0.06963216,109.51498,200.26305)"
     fill="#000000"
     stroke="none"
     id="g1272"><path
       d="m 480,1941 c -117,-62 -161,-190 -106,-308 24,-50 81,-104 127,-118 18,-6 19,-26 19,-625 0,-680 -3,-650 60,-650 62,0 60,-18 60,657 v 613 l 33,13 c 38,17 91,67 112,108 23,43 29,113 15,163 -16,57 -72,123 -124,147 -54,25 -149,24 -196,0 z m 165,-123 c 31,-28 44,-73 34,-114 -31,-115 -210,-94 -209,25 1,69 42,110 112,111 24,0 46,-8 63,-22 z"
       id="path1266" /><path
       d="m 1337,1942 c -15,-17 -17,-55 -17,-344 v -326 l -25,-6 c -35,-9 -93,-62 -118,-110 -15,-30 -21,-59 -22,-107 0,-87 36,-150 112,-194 l 52,-30 1,-276 c 0,-254 1,-277 18,-292 24,-22 65,-21 85,1 15,16 17,52 17,294 v 275 l 40,18 c 80,36 130,117 130,207 -1,91 -60,182 -137,210 l -33,12 v 326 c 0,304 -1,328 -18,343 -24,22 -65,21 -85,-1 z m 119,-816 c 27,-27 34,-42 34,-74 0,-48 -28,-86 -74,-102 -43,-14 -77,-5 -109,28 -48,53 -41,128 17,163 49,30 92,25 132,-15 z"
       id="path1268" /><path
       d="m 2137,1942 c -15,-17 -17,-75 -17,-634 V 692 l -45,-22 c -131,-64 -164,-237 -66,-351 108,-128 312,-98 382,56 22,48 24,133 5,179 -20,48 -70,100 -116,121 l -40,18 v 617 c 0,585 -1,618 -18,633 -24,22 -65,21 -85,-1 z M 2238,557 c 30,-14 52,-56 52,-98 0,-22 -10,-41 -34,-65 -46,-46 -101,-48 -148,-5 -28,25 -33,36 -33,75 0,36 6,51 29,75 38,40 78,45 134,18 z"
       id="path1270" /></g></g></svg>
