<?xml version="1.0" encoding="UTF-8" standalone="no"?>
<svg
   version="1.0"
   width="737.00781pt"
   height="737.00781pt"
   viewBox="0 0 737.00781 737.00781"
   preserveAspectRatio="xMidYMid meet"
   id="svg2248"
   xmlns="http://www.w3.org/2000/svg"
   xmlns:svg="http://www.w3.org/2000/svg">
  <defs
     id="defs2252" />
  <path
     id="path5288"
     style="fill:#000000;stroke-width:1.21169"
     d="M 491.33789 4.4179688 A 486.92 486.92 0 0 0 4.4179688 491.33789 A 486.92 486.92 0 0 0 491.33789 978.25781 A 486.92 486.92 0 0 0 978.25781 491.33789 A 486.92 486.92 0 0 0 491.33789 4.4179688 z M 279.74023 421.27148 C 284.96968 421.03877 290.32405 421.38685 295.73242 422.375 C 313.78069 425.67254 333.18627 439.22966 342.64258 455.14844 C 359.65734 483.79117 354.62759 519.73701 330.4375 542.375 C 322.50023 549.803 314.90804 554.26939 303.55469 558.1875 C 294.56036 561.29148 277.24481 562.08933 267.42969 559.85156 C 235.29078 552.52413 212.65039 524.20708 212.65039 491.33789 C 212.65039 452.99502 243.13412 422.90051 279.74023 421.27148 z M 491.72266 421.55469 C 499.59238 421.55616 507.36761 422.5664 513.14844 424.58398 C 534.51725 432.04199 550.63574 448.15852 558.09375 469.52734 C 562.12848 481.08899 562.1321 500.63534 558.10156 512.93945 C 551.18585 534.05114 534.43123 550.8428 513.14844 557.99023 C 503.05011 561.38157 486.26025 562.22527 475.89062 559.86133 C 466.34608 557.6855 454.63503 551.95811 447.25 545.85547 C 404.23152 510.30708 416.91997 441.87823 469.73828 424.57617 C 475.89034 422.56068 483.85293 421.55321 491.72266 421.55469 z M 701.38867 421.66797 C 708.63702 421.8614 715.98009 422.79815 721.16602 424.41797 C 739.16297 430.03932 755.41088 444.34981 763.44336 461.65234 C 782.35188 502.38264 758.45401 550.69544 714.89453 559.80078 C 706.91202 561.46938 696.90848 561.87836 690.05469 560.81641 C 663.5462 556.70906 641.16824 537.56055 632.93359 511.9375 C 629.39595 500.92971 629.39595 481.74801 632.93359 470.74023 C 640.21999 448.06776 659.15246 429.86079 682.17969 423.37891 C 686.9868 422.02577 694.14033 421.47454 701.38867 421.66797 z "
     transform="scale(0.75)" />
</svg>
