<?xml version="1.0" encoding="UTF-8" standalone="no"?>
<svg
   version="1.0"
   width="260pt"
   height="260pt"
   viewBox="0 0 260 260"
   preserveAspectRatio="xMidYMid meet"
   id="svg1068"
   xmlns="http://www.w3.org/2000/svg"
   xmlns:svg="http://www.w3.org/2000/svg">
  <defs
     id="defs1072" />
  <g
     transform="matrix(0.05943943,0,0,-0.05943943,-20.582723,290.01691)"
     fill="#000000"
     stroke="none"
     id="g10">
    <path
       d="m 2090,4866 c -78,-16 -142,-50 -203,-106 -102,-93 -137,-194 -137,-392 v -127 l -582,-3 c -568,-3 -584,-4 -618,-24 -52,-30 -82,-88 -77,-147 5,-54 27,-91 77,-124 31,-22 44,-23 192,-23 118,0 160,-3 163,-12 2,-7 45,-643 95,-1413 53,-814 97,-1431 106,-1475 29,-148 133,-310 250,-391 65,-44 150,-85 224,-106 61,-17 122,-18 975,-18 853,0 914,1 975,18 223,64 382,214 455,432 30,89 25,23 145,1950 34,545 63,996 65,1003 3,9 45,12 163,12 148,0 161,1 192,23 48,32 72,69 77,119 7,58 -23,118 -74,149 l -38,24 -582,3 -583,3 v 127 c 0,198 -35,299 -137,392 -63,57 -136,94 -217,109 -84,15 -833,13 -906,-3 z m 911,-354 c 29,-32 29,-34 29,-152 v -120 h -480 -480 v 119 c 0,113 1,121 25,150 14,16 36,32 48,34 12,3 203,4 425,3 l 404,-1 z m 869,-626 c 0,-54 -170,-2754 -175,-2786 -18,-106 -103,-212 -203,-252 l -57,-23 h -890 -890 l -55,26 c -101,47 -164,124 -189,229 -9,37 -171,2690 -171,2798 v 32 h 1315 1315 z"
       id="path2" />
    <path
       d="m 1830,3358 c -18,-13 -43,-36 -54,-51 -21,-28 -21,-31 -21,-937 0,-906 0,-909 21,-937 73,-98 195,-98 268,0 21,28 21,31 21,937 0,906 0,909 -21,937 -35,48 -82,73 -134,73 -32,0 -57,-7 -80,-22 z"
       id="path4" />
    <path
       d="m 2470,3358 c -18,-13 -43,-36 -54,-51 -21,-28 -21,-31 -21,-937 0,-906 0,-909 21,-937 73,-98 195,-98 268,0 21,28 21,31 21,937 0,906 0,909 -21,937 -35,48 -82,73 -134,73 -32,0 -57,-7 -80,-22 z"
       id="path6" />
    <path
       d="m 3110,3358 c -18,-13 -43,-36 -54,-51 -21,-28 -21,-31 -21,-937 0,-906 0,-909 21,-937 73,-98 195,-98 268,0 21,28 21,31 21,937 0,906 0,909 -21,937 -35,48 -82,73 -134,73 -32,0 -57,-7 -80,-22 z"
       id="path8" />
  </g>
</svg>
