<?xml version="1.0" encoding="UTF-8" standalone="no"?>
<svg
   version="1.0"
   width="260pt"
   height="260pt"
   viewBox="0 0 260 260"
   preserveAspectRatio="xMidYMid meet"
   id="svg1068"
   xmlns="http://www.w3.org/2000/svg"
   xmlns:svg="http://www.w3.org/2000/svg">
  <defs
     id="defs1072" />
  <g
     transform="matrix(0.0508547,0,0,-0.0508547,-57.720086,322.80555)"
     fill="#000000"
     stroke="none"
     id="g542">
    <path
       d="m 5525,6337 c -22,-8 -58,-23 -80,-35 -25,-13 -487,-469 -1206,-1189 L 3073,3945 2995,3555 c -67,-340 -75,-394 -66,-426 13,-43 67,-94 109,-104 20,-4 152,18 389,65 197,39 374,75 393,80 28,8 266,241 1206,1182 1317,1319 1219,1209 1219,1368 -1,137 -20,169 -238,387 -149,149 -193,187 -241,209 -71,32 -178,41 -241,21 z m 269,-446 c 136,-136 158,-162 153,-182 -4,-13 -47,-64 -97,-114 l -90,-90 -178,178 -177,177 96,95 c 54,53 104,95 115,95 11,0 84,-64 178,-159 z m -424,-426 175,-175 -919,-919 -919,-919 -214,-42 c -117,-24 -216,-40 -220,-37 -3,4 13,102 36,219 l 42,213 917,918 c 504,504 919,917 922,917 3,0 84,-79 180,-175 z"
       id="path538" />
    <path
       d="m 1575,5520 c -194,-40 -352,-179 -417,-368 l -23,-67 V 3380 1675 l 23,-66 c 57,-166 185,-294 350,-351 l 67,-23 h 1705 1705 l 67,23 c 163,57 286,178 350,348 l 23,59 3,1172 c 2,1163 2,1173 -18,1213 -23,45 -80,80 -130,80 -50,0 -107,-35 -130,-80 -20,-39 -20,-56 -20,-1173 0,-1274 5,-1193 -75,-1272 -81,-81 63,-75 -1775,-75 -1838,0 -1694,-6 -1775,75 -81,81 -75,-63 -75,1775 0,1838 -6,1694 75,1775 79,80 -2,75 1272,75 1117,0 1134,0 1173,20 45,23 80,80 80,130 0,50 -35,107 -80,130 -39,20 -55,20 -1187,19 -631,-1 -1166,-5 -1188,-9 z"
       id="path540" />
  </g>
</svg>
