<?xml version="1.0" encoding="UTF-8" standalone="no"?>
<svg
   version="1.0"
   width="260pt"
   height="260pt"
   viewBox="0 0 260 260"
   preserveAspectRatio="xMidYMid meet"
   id="svg1068"
   xmlns="http://www.w3.org/2000/svg"
   xmlns:svg="http://www.w3.org/2000/svg">
  <defs
     id="defs1072" />
  <g
     transform="matrix(0.08150955,0,0,-0.08150955,-29.746077,276.21291)"
     fill="#000000"
     stroke="none"
     id="g4">
    <path
       d="M 1750,3375 C 1398,3326 1090,3175 842,2931 601,2695 451,2412 384,2065 357,1926 359,1639 388,1493 514,865 974,385 1595,234 c 55,-13 103,-24 108,-24 4,0 7,304 7,675 v 675 h -125 -125 v 220 220 h 123 124 l 6,123 c 14,273 110,497 270,627 72,59 193,121 287,146 84,23 360,26 469,5 l 73,-15 -6,-120 c -19,-360 -18,-347 -34,-341 -9,3 -49,10 -90,16 -238,33 -360,-80 -365,-337 l -2,-99 193,-3 192,-2 V 1780 1560 H 2510 2320 V 896 232 l 73,20 c 592,166 1032,653 1143,1263 25,137 25,423 0,550 -113,585 -503,1044 -1049,1234 -235,82 -498,109 -737,76 z"
       id="path2" />
  </g>
</svg>
