<?xml version="1.0" encoding="UTF-8" standalone="no"?>
<svg
   version="1.0"
   width="737.00793pt"
   height="737.00787pt"
   viewBox="0 0 737.00793 737.00787"
   preserveAspectRatio="xMidYMid meet"
   id="svg900"
   sodipodi:docname="navbar-cart.svg"
   inkscape:version="1.1.1 (3bf5ae0, 2021-09-20)"
   xmlns:inkscape="http://www.inkscape.org/namespaces/inkscape"
   xmlns:sodipodi="http://sodipodi.sourceforge.net/DTD/sodipodi-0.dtd"
   xmlns="http://www.w3.org/2000/svg"
   xmlns:svg="http://www.w3.org/2000/svg">
  <sodipodi:namedview
     id="namedview6"
     pagecolor="#ffffff"
     bordercolor="#666666"
     borderopacity="1.0"
     inkscape:pageshadow="2"
     inkscape:pageopacity="0.0"
     inkscape:pagecheckerboard="0"
     inkscape:document-units="pt"
     showgrid="false"
     inkscape:zoom="0.44775641"
     inkscape:cx="492.45526"
     inkscape:cy="491.33858"
     inkscape:window-width="1366"
     inkscape:window-height="701"
     inkscape:window-x="0"
     inkscape:window-y="30"
     inkscape:window-maximized="1"
     inkscape:current-layer="svg900" />
  <defs
     id="defs904" />
  <g
     transform="matrix(0.35364986,0,0,-0.30295781,36.073099,759.96892)"
     fill="#FFFFFF"
     stroke="none"
     id="g898"
     style="fill:#000000">
    <path
       d="M 821,2474 C 607,2417 460,2223 460,1998 v -68 H 407 C 285,1930 176,1854 146,1749 129,1688 64,386 74,312 85,233 139,158 215,117 255,95 257,95 940,95 c 683,0 685,0 725,22 76,41 130,116 141,195 10,74 -55,1376 -72,1437 -30,105 -139,181 -261,181 h -53 v 68 c 0,132 -46,248 -137,343 -118,124 -300,177 -462,133 z m 217,-160 c 76,-25 140,-79 181,-153 30,-56 35,-76 39,-148 l 5,-83 H 941 620 v 65 c 0,229 207,387 418,319 z"
       id="path896"
       style="fill:#000000" />
  </g>
</svg>
