<?xml version="1.0" encoding="UTF-8" standalone="no"?>
<svg
   version="1.0"
   width="260pt"
   height="260pt"
   viewBox="0 0 260 260"
   preserveAspectRatio="xMidYMid meet"
   id="svg1068"
   xmlns="http://www.w3.org/2000/svg"
   xmlns:svg="http://www.w3.org/2000/svg">
  <defs
     id="defs1072" />
  <g
     transform="matrix(0.1,0,0,-0.1,3,259.92671)"
     fill="#FFFFFF"
     stroke="none"
     id="g1066"
     style="fill:#000000">
    <path
       d="m 510,2560 c -135,-46 -212,-228 -157,-372 26,-67 99,-130 185,-160 60,-21 85,-23 237,-23 148,0 181,3 252,24 136,38 203,98 203,179 0,78 -129,196 -315,288 -167,82 -295,102 -405,64 z m 264,-208 c 81,-32 220,-118 211,-131 -10,-18 -149,-33 -254,-29 -145,7 -201,33 -201,94 0,47 16,83 42,94 35,15 122,3 202,-28 z"
       id="path1054"
       style="fill:#000000" />
    <path
       d="m 1840,2574 c -143,-28 -347,-135 -449,-236 -94,-93 -102,-162 -27,-233 71,-69 212,-105 406,-105 192,0 292,30 371,112 88,91 88,253 0,376 -35,50 -112,84 -199,87 -42,2 -88,1 -102,-1 z m 137,-199 c 13,-9 27,-34 33,-56 23,-83 -35,-119 -201,-127 -102,-4 -244,11 -254,28 -7,11 89,73 178,116 109,51 205,67 244,39 z"
       id="path1056"
       style="fill:#000000" />
    <path
       d="m 120,1897 c -19,-7 -44,-27 -57,-46 -22,-33 -23,-42 -23,-250 0,-199 2,-219 20,-249 38,-62 37,-62 588,-62 374,0 501,3 510,12 9,9 12,88 12,294 0,244 -2,285 -16,298 -14,14 -73,16 -507,15 -354,0 -502,-3 -527,-12 z"
       id="path1058"
       style="fill:#000000" />
    <path
       d="m 1388,1899 c -17,-9 -18,-34 -18,-299 0,-276 1,-290 19,-300 13,-6 191,-10 511,-10 542,0 542,0 580,62 18,30 20,50 20,249 0,208 -1,217 -23,250 -13,19 -38,39 -57,46 -45,15 -1006,18 -1032,2 z"
       id="path1060"
       style="fill:#000000" />
    <path
       d="m 243,1145 c -64,-27 -63,-23 -63,-560 0,-434 2,-488 16,-511 36,-54 37,-54 517,-54 396,0 446,2 451,16 3,9 6,258 6,554 0,476 -2,540 -16,554 -14,14 -68,16 -447,16 -345,-1 -438,-4 -464,-15 z"
       id="path1062"
       style="fill:#000000" />
    <path
       d="m 1386,1144 c -14,-14 -16,-78 -16,-554 0,-296 3,-545 6,-554 5,-14 55,-16 451,-16 480,0 481,0 517,54 14,23 16,77 16,511 0,422 -2,490 -16,516 -29,58 -41,59 -513,59 -377,0 -431,-2 -445,-16 z"
       id="path1064"
       style="fill:#000000" />
  </g>
</svg>
