<?xml version="1.0" encoding="UTF-8" standalone="no"?>
<svg
   version="1.0"
   width="737.00787pt"
   height="737.00787pt"
   viewBox="0 0 737.00787 737.00787"
   preserveAspectRatio="xMidYMid meet"
   id="svg2962"
   xmlns="http://www.w3.org/2000/svg"
   xmlns:svg="http://www.w3.org/2000/svg">
  <defs
     id="defs2966" />
  <g
     transform="matrix(0.28222385,0,0,-0.28222385,-20.964976,692.5525)"
     fill="#FFFFFF"
     stroke="none"
     id="g2960"
     style="fill:#000000">
    <path
       d="m 970,2264 c -53,-10 -147,-48 -197,-80 -95,-60 -173,-157 -215,-266 -26,-67 -36,-224 -18,-299 56,-241 272,-413 520,-413 294,0 530,234 530,526 0,134 -29,221 -109,328 -93,124 -238,199 -396,205 -49,2 -101,2 -115,-1 z m 201,-174 c 264,-82 347,-420 152,-615 -225,-226 -613,-82 -631,234 -8,135 41,246 143,323 96,73 220,95 336,58 z"
       id="path2954"
       style="fill:#000000" />
    <path
       d="m 2099,1741 c -16,-13 -23,-29 -23,-55 0,-34 11,-48 154,-191 l 155,-155 h -360 c -389,0 -398,-2 -423,-54 -16,-32 -2,-80 29,-96 10,-6 168,-10 383,-10 201,0 366,-3 366,-7 0,-4 -70,-77 -155,-163 -108,-109 -155,-163 -155,-179 0,-12 13,-36 29,-52 57,-56 61,-54 323,209 218,218 238,240 238,272 0,31 -20,54 -233,267 -217,218 -235,233 -269,233 -20,0 -46,-8 -59,-19 z"
       id="path2956"
       style="fill:#000000" />
    <path
       d="M 500,979 C 364,953 220,840 156,709 106,607 100,561 100,303 V 79 l 25,-24 24,-25 h 911 911 l 24,25 25,24 v 224 c 0,258 -6,304 -56,406 -66,135 -209,244 -353,271 -66,12 -1047,11 -1111,-1 z M 1662,792 c 77,-38 130,-92 167,-171 25,-53 26,-65 29,-243 l 4,-188 H 1060 258 l 4,188 c 3,177 4,190 29,242 33,70 79,123 136,157 90,52 89,52 648,50 l 520,-2 z"
       id="path2958"
       style="fill:#000000" />
  </g>
</svg>
