<?xml version="1.0" encoding="UTF-8" standalone="no"?>
<svg
   version="1.0"
   width="737.00781pt"
   height="737.00781pt"
   viewBox="0 0 737.00781 737.00781"
   preserveAspectRatio="xMidYMid meet"
   id="svg2248"
   xmlns="http://www.w3.org/2000/svg"
   xmlns:svg="http://www.w3.org/2000/svg">
  <defs
     id="defs2252" />
  <g
     transform="matrix(0.41277805,0,0,-0.41277805,108.45373,810.17642)"
     fill="#000000"
     stroke="none"
     id="g867">
    <path
       d="M 573,1527 C 178,1133 150,1102 150,1070 c 0,-32 28,-63 423,-457 385,-386 425,-423 455,-423 44,0 82,38 82,82 0,29 -35,68 -382,415 l -383,383 383,383 c 347,347 382,386 382,415 0,44 -38,82 -82,82 -30,0 -70,-37 -455,-423 z"
       id="path865" />
  </g>
</svg>
