<?xml version="1.0" encoding="UTF-8" standalone="no"?>
<svg
   version="1.0"
   width="737.00781pt"
   height="737.00781pt"
   viewBox="0 0 737.00781 737.00781"
   preserveAspectRatio="xMidYMid meet"
   id="svg2248"
   xmlns="http://www.w3.org/2000/svg"
   xmlns:svg="http://www.w3.org/2000/svg">
  <defs
     id="defs2252" />
  <g
     transform="matrix(0.28431565,0,0,-0.28431565,-72.295184,789.27718)"
     fill="#000000"
     stroke="none"
     id="g876">
    <path
       d="m 349,2738 c -69,-39 -97,-124 -63,-191 9,-18 248,-265 532,-549 L 1335,1480 818,963 C 534,678 295,431 286,413 c -34,-68 -6,-153 64,-192 45,-25 89,-27 133,-5 18,9 265,248 549,532 l 518,517 518,-517 c 284,-284 531,-523 549,-532 68,-34 153,-6 192,64 25,45 27,89 5,133 -9,18 -248,265 -532,549 l -517,518 517,518 c 284,284 523,531 532,549 22,44 20,88 -5,133 -39,70 -124,98 -192,64 -18,-9 -265,-248 -549,-532 l -518,-517 -517,517 c -285,284 -532,523 -550,532 -43,22 -91,20 -134,-6 z"
       id="path874" />
  </g>
</svg>
