<?xml version="1.0" encoding="UTF-8" standalone="no"?>
<svg
   version="1.0"
   width="737.00781pt"
   height="737.00781pt"
   viewBox="0 0 737.00781 737.00781"
   preserveAspectRatio="xMidYMid meet"
   id="svg2248"
   xmlns="http://www.w3.org/2000/svg"
   xmlns:svg="http://www.w3.org/2000/svg">
  <defs
     id="defs2252" />
  <g
     transform="matrix(0.28563619,0,0,-0.28563619,32.021244,745.28773)"
     fill="#FFFFFF"
     stroke="none"
     id="g2246"
     style="fill:#000000">
    <path
       d="M 985,2474 C 892,2405 748,2299 667,2239 550,2152 521,2126 529,2116 c 24,-29 622,-461 639,-461 15,0 17,16 20,158 3,181 -11,166 127,142 259,-46 494,-229 601,-470 65,-148 84,-365 45,-518 -74,-287 -289,-506 -581,-593 -51,-15 -96,-19 -205,-19 -165,1 -226,14 -360,81 -217,107 -367,296 -429,539 -30,116 -45,141 -99,166 -55,24 -83,24 -137,-3 C 63,1093 50,1006 105,830 197,538 408,292 681,157 1102,-50 1598,25 1940,346 c 149,140 263,332 317,531 25,90 27,114 27,283 0,168 -2,194 -26,282 -126,462 -513,787 -995,834 l -73,7 -2,156 c -3,129 -6,156 -18,158 -8,1 -91,-54 -185,-123 z"
       id="path2244"
       style="fill:#000000" />
  </g>
</svg>
