<?xml version="1.0" encoding="UTF-8" standalone="no"?>
<svg
   version="1.0"
   width="737.00787pt"
   height="737.00793pt"
   viewBox="0 0 737.00787 737.00793"
   preserveAspectRatio="xMidYMid meet"
   id="svg1766"
   xmlns="http://www.w3.org/2000/svg"
   xmlns:svg="http://www.w3.org/2000/svg">
  <defs
     id="defs1770" />
  <g
     transform="matrix(0.28453249,0,0,-0.28453249,-15.614925,744.34612)"
     fill="#FFFFFF"
     stroke="none"
     id="g1764"
     style="fill:#000000">
    <path
       d="M 1210,2594 C 649,2522 213,2123 94,1570 68,1451 68,1189 94,1070 205,557 587,175 1100,64 c 119,-26 381,-26 500,0 513,111 895,493 1006,1006 26,119 26,381 0,500 -109,507 -483,886 -986,1001 -83,19 -331,33 -410,23 z m 286,-205 c 478,-66 857,-445 923,-923 C 2501,881 2084,333 1496,251 795,153 183,765 281,1466 c 82,588 630,1005 1215,923 z"
       id="path1758"
       style="fill:#000000" />
    <path
       d="m 1270,1950 c -164,-35 -299,-182 -316,-346 -10,-93 24,-144 96,-144 17,0 40,5 51,10 24,13 49,61 49,95 0,60 53,140 115,173 39,20 131,20 171,-1 108,-56 145,-194 77,-290 -36,-52 -76,-75 -150,-87 -45,-7 -64,-16 -85,-40 -28,-30 -28,-31 -28,-181 0,-192 16,-229 100,-229 75,0 100,43 100,168 v 88 l 55,23 c 65,27 153,104 188,164 126,215 29,490 -204,578 -58,23 -159,31 -219,19 z"
       id="path1760"
       style="fill:#000000" />
    <path
       d="m 1289,815 c -39,-21 -59,-59 -59,-109 0,-82 79,-141 155,-116 102,34 117,177 24,226 -35,18 -86,17 -120,-1 z"
       id="path1762"
       style="fill:#000000" />
  </g>
</svg>
