<?xml version="1.0" encoding="UTF-8" standalone="no"?>
<svg
   version="1.0"
   width="260pt"
   height="260pt"
   viewBox="0 0 260 260"
   preserveAspectRatio="xMidYMid meet"
   id="svg1068"
   xmlns="http://www.w3.org/2000/svg"
   xmlns:svg="http://www.w3.org/2000/svg">
  <defs
     id="defs1072" />
  <g
     transform="matrix(0.05608222,0,0,-0.05603448,-52.156463,297.5431)"
     fill="#000000"
     stroke="none"
     id="g6">
    <path
       d="m 1940,4740 c -541,-313 -990,-577 -997,-586 -10,-14 -13,-252 -13,-1165 0,-1078 1,-1148 18,-1167 27,-31 1977,-1152 2003,-1152 13,0 190,97 394,214 l 369,214 90,-95 c 49,-52 117,-114 150,-137 398,-283 936,-247 1291,86 361,337 426,895 152,1303 -94,140 -234,268 -368,336 l -59,29 v 759 c 0,708 -1,760 -17,779 -28,32 -1977,1152 -2004,1152 -13,-1 -467,-257 -1009,-570 z m 1898,-115 c 485,-280 882,-512 882,-515 0,-6 -857,-503 -876,-508 -15,-4 -1656,1089 -1649,1097 11,11 750,439 756,437 3,0 402,-230 887,-511 z m -978,-572 c 451,-300 819,-548 817,-549 -1,-1 -165,-97 -364,-212 l -363,-210 -288,166 c -158,92 -556,322 -885,512 -328,190 -597,347 -597,350 0,8 833,489 848,489 6,1 381,-245 832,-546 z m -822,-628 832,-480 V 1917 c 0,-976 -1,-1027 -17,-1018 -10,5 -192,110 -404,233 -212,122 -605,349 -872,503 l -486,280 -1,1028 v 1028 l 58,-33 c 32,-18 433,-249 890,-513 z m 2768,-742 c -3,-3 -46,2 -97,11 -283,49 -571,-28 -802,-214 -160,-128 -287,-325 -344,-535 -24,-88 -27,-118 -27,-250 0,-165 11,-230 66,-373 17,-45 29,-84 27,-86 -3,-3 -348,-203 -591,-343 -5,-2 -8,458 -8,1024 l 1,1028 357,207 357,207 5,-331 5,-330 24,-19 c 32,-26 77,-24 106,6 l 25,24 v 373 373 l 448,258 447,257 3,-642 c 1,-352 0,-643 -2,-645 z m -126,-143 c 331,-53 596,-287 696,-615 24,-80 27,-106 27,-235 0,-129 -3,-155 -27,-235 -89,-293 -298,-502 -591,-591 -80,-24 -106,-27 -235,-27 -129,0 -155,3 -235,27 -529,161 -777,740 -524,1226 166,320 534,506 889,450 z"
       id="path2" />
    <path
       d="m 4958,2138 c -8,-7 -113,-143 -234,-303 -120,-159 -235,-311 -255,-337 l -36,-47 -133,157 c -141,168 -172,192 -218,170 -34,-17 -57,-58 -49,-89 9,-32 334,-419 370,-439 24,-13 30,-13 55,0 15,9 149,176 297,371 149,196 282,370 298,388 52,62 26,141 -46,141 -18,0 -40,-6 -49,-12 z"
       id="path4" />
  </g>
</svg>
