<?xml version="1.0" encoding="UTF-8" standalone="no"?>
<svg
   version="1.0"
   width="737.00781pt"
   height="737.00781pt"
   viewBox="0 0 737.00781 737.00781"
   preserveAspectRatio="xMidYMid meet"
   id="svg2248"
   xmlns="http://www.w3.org/2000/svg"
   xmlns:svg="http://www.w3.org/2000/svg">
  <defs
     id="defs2252" />
  <g
     transform="matrix(0.32921581,0,0,-0.32921581,-34.209333,796.48317)"
     fill="#000000"
     stroke="none"
     id="g14">
    <path
       d="m 405,2401 c -46,-21 -101,-79 -112,-119 -10,-35 -10,-1929 0,-1964 11,-40 66,-98 112,-119 38,-17 87,-19 813,-19 845,0 812,-2 875,58 66,62 62,10 65,856 l 3,770 -278,278 -278,278 h -580 c -539,0 -583,-2 -620,-19 z m 1145,-314 c 0,-183 3,-256 12,-265 9,-9 82,-12 265,-12 h 253 v -720 c 0,-794 2,-771 -62,-810 -32,-20 -48,-20 -798,-20 -750,0 -766,0 -798,20 -65,40 -62,-5 -62,1020 0,1025 -3,980 62,1020 32,19 49,20 581,20 h 547 z m 460,-189 c 0,-5 -85,-8 -190,-8 h -190 v 197 198 l 190,-190 c 105,-104 190,-193 190,-197 z"
       id="path2" />
    <path
       d="m 527,2123 c -11,-11 -8,-48 5,-61 9,-9 103,-12 359,-12 303,0 350,2 363,16 9,8 16,21 16,28 0,34 -20,36 -380,36 -196,0 -360,-3 -363,-7 z"
       id="path4" />
    <path
       d="m 527,1883 c -11,-11 -8,-48 5,-61 9,-9 103,-12 359,-12 303,0 350,2 363,16 9,8 16,21 16,28 0,34 -20,36 -380,36 -196,0 -360,-3 -363,-7 z"
       id="path6" />
    <path
       d="M 763,1452 C 747,1442 510,944 510,921 c 0,-36 20,-41 162,-41 H 810 V 761 c 0,-111 2,-121 22,-135 15,-11 26,-12 40,-5 17,9 18,27 18,257 0,249 -3,272 -36,272 -32,0 -44,-31 -44,-111 V 960 H 711 611 l 33,73 c 19,39 66,139 105,221 39,82 71,157 71,167 0,10 -9,23 -19,29 -23,12 -23,12 -38,2 z"
       id="path8" />
    <path
       d="m 1192,1451 c -68,-18 -132,-80 -152,-152 -14,-47 -13,-484 1,-534 16,-60 93,-130 157,-144 77,-16 145,5 198,62 61,64 66,90 62,375 -2,207 -6,252 -20,277 -20,38 -64,83 -98,100 -34,18 -108,25 -148,16 z m 128,-99 c 55,-40 60,-66 60,-317 0,-199 -2,-235 -18,-264 -25,-51 -61,-73 -117,-73 -56,0 -92,22 -118,73 -16,30 -17,60 -15,276 3,226 4,243 24,270 45,62 126,77 184,35 z"
       id="path10" />
    <path
       d="m 1803,1452 c -16,-10 -253,-508 -253,-531 0,-36 20,-41 162,-41 h 138 V 761 c 0,-111 2,-121 22,-135 15,-11 26,-12 40,-5 17,9 18,27 18,257 0,249 -3,272 -36,272 -32,0 -44,-31 -44,-111 v -79 h -99 -100 l 33,73 c 19,39 66,139 105,221 39,82 71,157 71,167 0,10 -9,23 -19,29 -23,12 -23,12 -38,2 z"
       id="path12" />
  </g>
</svg>
