<?xml version="1.0" encoding="UTF-8" standalone="no"?>
<svg
   version="1.0"
   width="119.99733pt"
   height="187.81842pt"
   viewBox="0 0 119.99733 187.81842"
   preserveAspectRatio="xMidYMid meet"
   id="svg6"
   xmlns="http://www.w3.org/2000/svg"
   xmlns:svg="http://www.w3.org/2000/svg">
  <defs
     id="defs10" />
  <g
     transform="matrix(-0.1,0,0,-0.1,160.94486,208.90376)"
     fill="#000000"
     stroke="none"
     id="g4">
    <path
       d="m 491,2072 c -72,-36 -99,-123 -58,-185 10,-15 202,-186 428,-379 225,-193 408,-355 407,-358 -2,-4 -193,-170 -424,-368 C 587,561 420,412 416,398 c -20,-74 7,-143 67,-171 43,-21 58,-21 101,-3 48,20 1005,841 1016,872 15,39 12,96 -8,126 -24,38 -960,837 -999,854 -42,18 -61,18 -102,-4 z"
       id="path2" />
  </g>
</svg>
